<svg width="304" height="167" viewBox="0 0 304 167" fill="none" xmlns="http://www.w3.org/2000/svg">
<path d="M50.4148 81H49.3068L52.5114 72.2727H53.6023L56.8068 81H55.6989L53.0909 73.6534H53.0227L50.4148 81ZM50.8239 77.5909H55.2898V78.5284H50.8239V77.5909Z" fill="white"/>
<rect x="39.5" y="63.5" width="27" height="27" rx="1.5" stroke="white"/>
<rect x="39.5" y="127.5" width="93" height="27" rx="1.5" stroke="white"/>
<path d="M87.8295 74.4545C87.7784 74.0227 87.571 73.6875 87.2074 73.4489C86.8438 73.2102 86.3977 73.0909 85.8693 73.0909C85.483 73.0909 85.1449 73.1534 84.8551 73.2784C84.5682 73.4034 84.3438 73.5753 84.1818 73.794C84.0227 74.0128 83.9432 74.2614 83.9432 74.5398C83.9432 74.7727 83.9986 74.973 84.1094 75.1406C84.223 75.3054 84.3679 75.4432 84.544 75.554C84.7202 75.6619 84.9048 75.7514 85.098 75.8224C85.2912 75.8906 85.4688 75.946 85.6307 75.9886L86.517 76.2273C86.7443 76.2869 86.9972 76.3693 87.2756 76.4744C87.5568 76.5795 87.8253 76.723 88.081 76.9048C88.3395 77.0838 88.5526 77.3139 88.7202 77.5952C88.8878 77.8764 88.9716 78.2216 88.9716 78.6307C88.9716 79.1023 88.848 79.5284 88.6009 79.9091C88.3565 80.2898 87.9986 80.5923 87.527 80.8168C87.0582 81.0412 86.4886 81.1534 85.8182 81.1534C85.1932 81.1534 84.652 81.0526 84.1946 80.8509C83.7401 80.6491 83.3821 80.3679 83.1207 80.0071C82.8622 79.6463 82.7159 79.2273 82.6818 78.75H83.7727C83.8011 79.0795 83.9119 79.3523 84.1051 79.5682C84.3011 79.7812 84.5483 79.9403 84.8466 80.0455C85.1477 80.1477 85.4716 80.1989 85.8182 80.1989C86.2216 80.1989 86.5838 80.1335 86.9048 80.0028C87.2259 79.8693 87.4801 79.6847 87.6676 79.4489C87.8551 79.2102 87.9489 78.9318 87.9489 78.6136C87.9489 78.3239 87.8679 78.0881 87.706 77.9062C87.544 77.7244 87.331 77.5767 87.0668 77.4631C86.8026 77.3494 86.517 77.25 86.2102 77.1648L85.1364 76.858C84.4545 76.6619 83.9148 76.3821 83.517 76.0185C83.1193 75.6548 82.9205 75.179 82.9205 74.5909C82.9205 74.1023 83.0526 73.6761 83.3168 73.3125C83.5838 72.946 83.9418 72.6619 84.3906 72.4602C84.8423 72.2557 85.3466 72.1534 85.9034 72.1534C86.4659 72.1534 86.9659 72.2543 87.4034 72.456C87.8409 72.6548 88.1875 72.9276 88.4432 73.2741C88.7017 73.6207 88.8381 74.0142 88.8523 74.4545H87.8295Z" fill="white"/>
<path d="M118.75 81H116.057V72.2727H118.869C119.716 72.2727 120.44 72.4474 121.043 72.7969C121.645 73.1435 122.107 73.642 122.428 74.2926C122.749 74.9403 122.909 75.7159 122.909 76.6193C122.909 77.5284 122.747 78.3111 122.423 78.9673C122.099 79.6207 121.628 80.1236 121.009 80.4759C120.389 80.8253 119.636 81 118.75 81ZM117.114 80.0625H118.682C119.403 80.0625 120.001 79.9233 120.476 79.6449C120.95 79.3665 121.304 78.9702 121.537 78.456C121.77 77.9418 121.886 77.3295 121.886 76.6193C121.886 75.9148 121.771 75.3082 121.541 74.7997C121.311 74.2884 120.967 73.8963 120.51 73.6236C120.053 73.348 119.483 73.2102 118.801 73.2102H117.114V80.0625Z" fill="white"/>
<rect x="72.5" y="63.5" width="27" height="27" rx="1.5" stroke="white"/>
<path d="M82.642 48L80.2557 39.2727H81.3295L83.1534 46.3807H83.2386L85.0966 39.2727H86.2898L88.1477 46.3807H88.233L90.0568 39.2727H91.1307L88.7443 48H87.6534L85.7273 41.0455H85.6591L83.733 48H82.642Z" fill="white"/>
<rect x="72.5" y="30.5" width="27" height="27" rx="1.5" stroke="white"/>
<path d="M195.398 72.2727H196.455V78.5114C196.455 79.0682 196.352 79.5412 196.148 79.9304C195.943 80.3196 195.655 80.6151 195.283 80.8168C194.911 81.0185 194.472 81.1193 193.966 81.1193C193.489 81.1193 193.064 81.0327 192.692 80.8594C192.32 80.6832 192.027 80.4332 191.814 80.1094C191.601 79.7855 191.494 79.4006 191.494 78.9545H192.534C192.534 79.2017 192.595 79.4176 192.717 79.6023C192.842 79.7841 193.013 79.9261 193.229 80.0284C193.445 80.1307 193.69 80.1818 193.966 80.1818C194.27 80.1818 194.528 80.1179 194.741 79.9901C194.955 79.8622 195.116 79.6747 195.227 79.4276C195.341 79.1776 195.398 78.8722 195.398 78.5114V72.2727Z" fill="white"/>
<rect x="181.5" y="63.5" width="27" height="27" rx="1.5" stroke="white"/>
<rect x="105.5" y="63.5" width="27" height="27" rx="1.5" stroke="white"/>
<path d="M28.7045 98.1818H29.5455L31.5227 103.011H31.5909L33.5682 98.1818H34.4091V104H33.75V99.5795H33.6932L31.875 104H31.2386L29.4205 99.5795H29.3636V104H28.7045V98.1818ZM37.5036 104.091C37.1096 104.091 36.764 103.997 36.4666 103.81C36.1712 103.622 35.9401 103.36 35.7734 103.023C35.6087 102.686 35.5263 102.292 35.5263 101.841C35.5263 101.386 35.6087 100.99 35.7734 100.651C35.9401 100.312 36.1712 100.048 36.4666 99.8608C36.764 99.6733 37.1096 99.5795 37.5036 99.5795C37.8975 99.5795 38.2422 99.6733 38.5376 99.8608C38.835 100.048 39.0661 100.312 39.2308 100.651C39.3975 100.99 39.4808 101.386 39.4808 101.841C39.4808 102.292 39.3975 102.686 39.2308 103.023C39.0661 103.36 38.835 103.622 38.5376 103.81C38.2422 103.997 37.8975 104.091 37.5036 104.091ZM37.5036 103.489C37.8028 103.489 38.049 103.412 38.2422 103.259C38.4354 103.105 38.5784 102.903 38.6712 102.653C38.764 102.403 38.8104 102.133 38.8104 101.841C38.8104 101.549 38.764 101.277 38.6712 101.026C38.5784 100.774 38.4354 100.57 38.2422 100.415C38.049 100.259 37.8028 100.182 37.5036 100.182C37.2043 100.182 36.9581 100.259 36.7649 100.415C36.5717 100.57 36.4287 100.774 36.3359 101.026C36.2431 101.277 36.1967 101.549 36.1967 101.841C36.1967 102.133 36.2431 102.403 36.3359 102.653C36.4287 102.903 36.5717 103.105 36.7649 103.259C36.9581 103.412 37.2043 103.489 37.5036 103.489ZM43.9162 99.6364L42.3026 104H41.6207L40.0071 99.6364H40.7344L41.9389 103.114H41.9844L43.1889 99.6364H43.9162ZM46.4744 104.091C46.054 104.091 45.6913 103.998 45.3864 103.812C45.0833 103.625 44.8494 103.364 44.6847 103.028C44.5218 102.691 44.4403 102.299 44.4403 101.852C44.4403 101.405 44.5218 101.011 44.6847 100.67C44.8494 100.328 45.0786 100.061 45.3722 99.8693C45.6676 99.6761 46.0123 99.5795 46.4062 99.5795C46.6335 99.5795 46.858 99.6174 47.0795 99.6932C47.3011 99.7689 47.5028 99.892 47.6847 100.062C47.8665 100.231 48.0114 100.455 48.1193 100.733C48.2273 101.011 48.2812 101.354 48.2812 101.761V102.045H44.9176V101.466H47.5994C47.5994 101.22 47.5502 101 47.4517 100.807C47.3551 100.614 47.2169 100.461 47.0369 100.349C46.8589 100.238 46.6487 100.182 46.4062 100.182C46.1392 100.182 45.9081 100.248 45.7131 100.381C45.5199 100.511 45.3712 100.682 45.267 100.892C45.1629 101.102 45.1108 101.328 45.1108 101.568V101.955C45.1108 102.284 45.1676 102.563 45.2812 102.793C45.3968 103.02 45.5568 103.193 45.7614 103.312C45.9659 103.43 46.2036 103.489 46.4744 103.489C46.6506 103.489 46.8097 103.464 46.9517 103.415C47.0956 103.364 47.2197 103.288 47.3239 103.188C47.428 103.085 47.5085 102.958 47.5653 102.807L48.2131 102.989C48.1449 103.208 48.0303 103.402 47.8693 103.568C47.7083 103.733 47.5095 103.862 47.2727 103.955C47.036 104.045 46.7699 104.091 46.4744 104.091ZM51.642 104V98.1818H52.3466V103.375H55.0511V104H51.642ZM57.8807 104.091C57.4602 104.091 57.0975 103.998 56.7926 103.812C56.4896 103.625 56.2557 103.364 56.0909 103.028C55.928 102.691 55.8466 102.299 55.8466 101.852C55.8466 101.405 55.928 101.011 56.0909 100.67C56.2557 100.328 56.4848 100.061 56.7784 99.8693C57.0739 99.6761 57.4186 99.5795 57.8125 99.5795C58.0398 99.5795 58.2642 99.6174 58.4858 99.6932C58.7074 99.7689 58.9091 99.892 59.0909 100.062C59.2727 100.231 59.4176 100.455 59.5256 100.733C59.6335 101.011 59.6875 101.354 59.6875 101.761V102.045H56.3239V101.466H59.0057C59.0057 101.22 58.9564 101 58.858 100.807C58.7614 100.614 58.6231 100.461 58.4432 100.349C58.2652 100.238 58.0549 100.182 57.8125 100.182C57.5455 100.182 57.3144 100.248 57.1193 100.381C56.9261 100.511 56.7775 100.682 56.6733 100.892C56.5691 101.102 56.517 101.328 56.517 101.568V101.955C56.517 102.284 56.5739 102.563 56.6875 102.793C56.803 103.02 56.9631 103.193 57.1676 103.312C57.3722 103.43 57.6098 103.489 57.8807 103.489C58.0568 103.489 58.2159 103.464 58.358 103.415C58.5019 103.364 58.6259 103.288 58.7301 103.188C58.8343 103.085 58.9148 102.958 58.9716 102.807L59.6193 102.989C59.5511 103.208 59.4366 103.402 59.2756 103.568C59.1146 103.733 58.9157 103.862 58.679 103.955C58.4422 104.045 58.1761 104.091 57.8807 104.091ZM62.6506 99.6364V100.205H60.2983V99.6364H62.6506ZM61.0028 104V99.0341C61.0028 98.7841 61.0616 98.5758 61.179 98.4091C61.2964 98.2424 61.4489 98.1174 61.6364 98.0341C61.8239 97.9508 62.0218 97.9091 62.2301 97.9091C62.3949 97.9091 62.5294 97.9223 62.6335 97.9489C62.7377 97.9754 62.8153 98 62.8665 98.0227L62.6733 98.6023C62.6392 98.5909 62.5919 98.5767 62.5312 98.5597C62.4725 98.5426 62.3949 98.5341 62.2983 98.5341C62.0767 98.5341 61.9167 98.59 61.8182 98.7017C61.7216 98.8134 61.6733 98.9773 61.6733 99.1932V104H61.0028ZM65.4879 99.6364V100.205H63.2266V99.6364H65.4879ZM63.8857 98.5909H64.5561V102.75C64.5561 102.939 64.5836 103.081 64.6385 103.176C64.6953 103.269 64.7673 103.331 64.8544 103.364C64.9434 103.394 65.0372 103.409 65.1357 103.409C65.2095 103.409 65.2701 103.405 65.3175 103.398C65.3648 103.388 65.4027 103.381 65.4311 103.375L65.5675 103.977C65.522 103.994 65.4586 104.011 65.3771 104.028C65.2957 104.047 65.1925 104.057 65.0675 104.057C64.8781 104.057 64.6925 104.016 64.5107 103.935C64.3307 103.853 64.1811 103.729 64.0618 103.562C63.9444 103.396 63.8857 103.186 63.8857 102.932V98.5909Z" fill="white"/>
<path d="M78.6818 100C78.6193 99.8087 78.5369 99.6373 78.4347 99.4858C78.3343 99.3324 78.214 99.2017 78.0739 99.0938C77.9356 98.9858 77.7784 98.9034 77.6023 98.8466C77.4261 98.7898 77.233 98.7614 77.0227 98.7614C76.678 98.7614 76.3646 98.8504 76.0824 99.0284C75.8002 99.2064 75.5758 99.4688 75.4091 99.8153C75.2424 100.162 75.1591 100.587 75.1591 101.091C75.1591 101.595 75.2434 102.02 75.4119 102.366C75.5805 102.713 75.8087 102.975 76.0966 103.153C76.3845 103.331 76.7083 103.42 77.0682 103.42C77.4015 103.42 77.6951 103.349 77.9489 103.207C78.2045 103.063 78.4034 102.861 78.5455 102.599C78.6894 102.336 78.7614 102.027 78.7614 101.67L78.9773 101.716H77.2273V101.091H79.4432V101.716C79.4432 102.195 79.3409 102.612 79.1364 102.966C78.9337 103.32 78.6534 103.595 78.2955 103.79C77.9394 103.983 77.5303 104.08 77.0682 104.08C76.553 104.08 76.1004 103.958 75.7102 103.716C75.322 103.473 75.0189 103.129 74.8011 102.682C74.5852 102.235 74.4773 101.705 74.4773 101.091C74.4773 100.631 74.5388 100.217 74.6619 99.8494C74.7869 99.4801 74.9631 99.1657 75.1903 98.9062C75.4176 98.6468 75.6866 98.4479 75.9972 98.3097C76.3078 98.1714 76.6496 98.1023 77.0227 98.1023C77.3295 98.1023 77.6155 98.1487 77.8807 98.2415C78.1477 98.3324 78.3854 98.4621 78.5938 98.6307C78.804 98.7973 78.9792 98.9972 79.1193 99.2301C79.2595 99.4612 79.3561 99.7178 79.4091 100H78.6818ZM83.3089 102.216V99.6364H83.9794V104H83.3089V103.261H83.2635C83.1612 103.483 83.0021 103.671 82.7862 103.827C82.5703 103.98 82.2976 104.057 81.968 104.057C81.6953 104.057 81.4529 103.997 81.2408 103.878C81.0286 103.757 80.862 103.575 80.7408 103.332C80.6196 103.088 80.5589 102.78 80.5589 102.409V99.6364H81.2294V102.364C81.2294 102.682 81.3184 102.936 81.4964 103.125C81.6764 103.314 81.9055 103.409 82.1839 103.409C82.3506 103.409 82.5201 103.366 82.6925 103.281C82.8667 103.196 83.0125 103.065 83.13 102.889C83.2493 102.713 83.3089 102.489 83.3089 102.216ZM86.4915 104.102C86.215 104.102 85.964 104.05 85.7386 103.946C85.5133 103.84 85.3343 103.688 85.2017 103.489C85.0691 103.288 85.0028 103.045 85.0028 102.761C85.0028 102.511 85.0521 102.309 85.1506 102.153C85.2491 101.996 85.3807 101.873 85.5455 101.784C85.7102 101.695 85.892 101.629 86.0909 101.585C86.2917 101.54 86.4934 101.504 86.696 101.477C86.9612 101.443 87.1761 101.418 87.3409 101.401C87.5076 101.382 87.6288 101.35 87.7045 101.307C87.7822 101.263 87.821 101.187 87.821 101.08V101.057C87.821 100.777 87.7443 100.559 87.5909 100.403C87.4394 100.248 87.2093 100.17 86.9006 100.17C86.5805 100.17 86.3295 100.241 86.1477 100.381C85.9659 100.521 85.8381 100.67 85.7642 100.83L85.1278 100.602C85.2415 100.337 85.393 100.131 85.5824 99.983C85.7737 99.8333 85.982 99.7292 86.2074 99.6705C86.4347 99.6098 86.6581 99.5795 86.8778 99.5795C87.018 99.5795 87.179 99.5966 87.3608 99.6307C87.5445 99.6629 87.7216 99.7301 87.892 99.8324C88.0644 99.9347 88.2074 100.089 88.321 100.295C88.4347 100.502 88.4915 100.778 88.4915 101.125V104H87.821V103.409H87.7869C87.7415 103.504 87.6657 103.605 87.5597 103.713C87.4536 103.821 87.3125 103.913 87.1364 103.989C86.9602 104.064 86.7453 104.102 86.4915 104.102ZM86.5938 103.5C86.8589 103.5 87.0824 103.448 87.2642 103.344C87.4479 103.24 87.5862 103.105 87.679 102.94C87.7737 102.776 87.821 102.602 87.821 102.42V101.807C87.7926 101.841 87.7301 101.872 87.6335 101.901C87.5388 101.927 87.429 101.951 87.304 101.972C87.1809 101.991 87.0606 102.008 86.9432 102.023C86.8277 102.036 86.7339 102.047 86.6619 102.057C86.4877 102.08 86.3248 102.116 86.1733 102.168C86.0237 102.217 85.9025 102.292 85.8097 102.392C85.7188 102.491 85.6733 102.625 85.6733 102.795C85.6733 103.028 85.7595 103.205 85.9318 103.324C86.1061 103.441 86.3267 103.5 86.5938 103.5ZM89.7152 104V99.6364H90.3629V100.295H90.4084C90.4879 100.08 90.6319 99.9044 90.8402 99.7699C91.0485 99.6354 91.2834 99.5682 91.5447 99.5682C91.594 99.5682 91.6555 99.5691 91.7294 99.571C91.8033 99.5729 91.8591 99.5758 91.897 99.5795V100.261C91.8743 100.256 91.8222 100.247 91.7408 100.236C91.6612 100.223 91.5769 100.216 91.4879 100.216C91.2758 100.216 91.0864 100.26 90.9197 100.349C90.755 100.437 90.6243 100.558 90.5277 100.713C90.433 100.866 90.3857 101.042 90.3857 101.239V104H89.7152ZM94.2067 104.091C93.843 104.091 93.522 103.999 93.2436 103.815C92.9652 103.63 92.7474 103.368 92.5902 103.031C92.433 102.692 92.3544 102.292 92.3544 101.83C92.3544 101.371 92.433 100.973 92.5902 100.636C92.7474 100.299 92.9661 100.039 93.2464 99.8551C93.5268 99.6714 93.8506 99.5795 94.218 99.5795C94.5021 99.5795 94.7266 99.6269 94.8913 99.7216C95.058 99.8144 95.1849 99.9205 95.272 100.04C95.361 100.157 95.4302 100.254 95.4794 100.33H95.5362V98.1818H96.2067V104H95.5589V103.33H95.4794C95.4302 103.409 95.3601 103.509 95.2692 103.631C95.1783 103.75 95.0485 103.857 94.88 103.952C94.7114 104.045 94.487 104.091 94.2067 104.091ZM94.2976 103.489C94.5665 103.489 94.7938 103.419 94.9794 103.278C95.165 103.136 95.3061 102.94 95.4027 102.69C95.4993 102.438 95.5476 102.148 95.5476 101.818C95.5476 101.492 95.5002 101.207 95.4055 100.963C95.3108 100.717 95.1707 100.526 94.9851 100.389C94.7995 100.251 94.5703 100.182 94.2976 100.182C94.0135 100.182 93.7768 100.255 93.5874 100.401C93.3999 100.545 93.2588 100.741 93.1641 100.989C93.0713 101.235 93.0249 101.511 93.0249 101.818C93.0249 102.129 93.0722 102.411 93.1669 102.665C93.2635 102.917 93.4055 103.117 93.593 103.267C93.7824 103.415 94.0173 103.489 94.2976 103.489Z" fill="white"/>
<path d="M141.932 138.182H142.636V142.341C142.636 142.712 142.568 143.027 142.432 143.287C142.295 143.546 142.103 143.743 141.855 143.878C141.607 144.012 141.314 144.08 140.977 144.08C140.659 144.08 140.376 144.022 140.128 143.906C139.88 143.789 139.685 143.622 139.543 143.406C139.401 143.19 139.33 142.934 139.33 142.636H140.023C140.023 142.801 140.063 142.945 140.145 143.068C140.228 143.189 140.342 143.284 140.486 143.352C140.63 143.42 140.794 143.455 140.977 143.455C141.18 143.455 141.352 143.412 141.494 143.327C141.636 143.241 141.744 143.116 141.818 142.952C141.894 142.785 141.932 142.581 141.932 142.341V138.182ZM146.707 142.216V139.636H147.378V144H146.707V143.261H146.662C146.56 143.483 146.401 143.671 146.185 143.827C145.969 143.98 145.696 144.057 145.366 144.057C145.094 144.057 144.851 143.997 144.639 143.878C144.427 143.757 144.26 143.575 144.139 143.332C144.018 143.088 143.957 142.78 143.957 142.409V139.636H144.628V142.364C144.628 142.682 144.717 142.936 144.895 143.125C145.075 143.314 145.304 143.409 145.582 143.409C145.749 143.409 145.919 143.366 146.091 143.281C146.265 143.196 146.411 143.065 146.528 142.889C146.648 142.713 146.707 142.489 146.707 142.216ZM148.606 144V139.636H149.254V140.318H149.31C149.401 140.085 149.548 139.904 149.751 139.776C149.953 139.645 150.197 139.58 150.481 139.58C150.769 139.58 151.008 139.645 151.2 139.776C151.393 139.904 151.543 140.085 151.651 140.318H151.697C151.808 140.093 151.976 139.914 152.2 139.781C152.423 139.647 152.691 139.58 153.004 139.58C153.394 139.58 153.713 139.702 153.961 139.946C154.209 140.188 154.333 140.566 154.333 141.08V144H153.663V141.08C153.663 140.758 153.575 140.527 153.398 140.389C153.222 140.251 153.015 140.182 152.776 140.182C152.469 140.182 152.232 140.275 152.063 140.46C151.895 140.644 151.81 140.877 151.81 141.159V144H151.129V141.011C151.129 140.763 151.048 140.563 150.887 140.412C150.726 140.259 150.519 140.182 150.265 140.182C150.091 140.182 149.928 140.228 149.776 140.321C149.627 140.414 149.505 140.543 149.413 140.707C149.322 140.87 149.276 141.059 149.276 141.273V144H148.606ZM155.559 145.636V139.636H156.207V140.33H156.286C156.335 140.254 156.404 140.157 156.491 140.04C156.58 139.92 156.707 139.814 156.871 139.722C157.038 139.627 157.263 139.58 157.548 139.58C157.915 139.58 158.239 139.671 158.519 139.855C158.799 140.039 159.018 140.299 159.175 140.636C159.333 140.973 159.411 141.371 159.411 141.83C159.411 142.292 159.333 142.692 159.175 143.031C159.018 143.368 158.8 143.63 158.522 143.815C158.244 143.999 157.923 144.091 157.559 144.091C157.279 144.091 157.054 144.045 156.886 143.952C156.717 143.857 156.587 143.75 156.496 143.631C156.406 143.509 156.335 143.409 156.286 143.33H156.229V145.636H155.559ZM156.218 141.818C156.218 142.148 156.266 142.438 156.363 142.69C156.46 142.94 156.601 143.136 156.786 143.278C156.972 143.419 157.199 143.489 157.468 143.489C157.748 143.489 157.982 143.415 158.17 143.267C158.359 143.117 158.501 142.917 158.596 142.665C158.692 142.411 158.741 142.129 158.741 141.818C158.741 141.511 158.693 141.235 158.599 140.989C158.506 140.741 158.365 140.545 158.175 140.401C157.988 140.255 157.752 140.182 157.468 140.182C157.195 140.182 156.966 140.251 156.781 140.389C156.595 140.526 156.455 140.717 156.36 140.963C156.265 141.207 156.218 141.492 156.218 141.818Z" fill="white"/>
<path d="M77.9318 17.1818H78.6364V21.3409C78.6364 21.7121 78.5682 22.0275 78.4318 22.2869C78.2955 22.5464 78.1032 22.7434 77.8551 22.8778C77.607 23.0123 77.3144 23.0795 76.9773 23.0795C76.6591 23.0795 76.3759 23.0218 76.1278 22.9062C75.8797 22.7888 75.6847 22.6222 75.5426 22.4062C75.4006 22.1903 75.3295 21.9337 75.3295 21.6364H76.0227C76.0227 21.8011 76.0634 21.9451 76.1449 22.0682C76.2282 22.1894 76.3419 22.2841 76.4858 22.3523C76.6297 22.4205 76.7936 22.4545 76.9773 22.4545C77.1799 22.4545 77.3523 22.4119 77.4943 22.3267C77.6364 22.2415 77.7443 22.1165 77.8182 21.9517C77.8939 21.785 77.9318 21.5814 77.9318 21.3409V17.1818ZM82.7074 21.2159V18.6364H83.3778V23H82.7074V22.2614H82.6619C82.5597 22.483 82.4006 22.6714 82.1847 22.8267C81.9688 22.9801 81.696 23.0568 81.3665 23.0568C81.0938 23.0568 80.8513 22.9972 80.6392 22.8778C80.4271 22.7566 80.2604 22.5748 80.1392 22.3324C80.018 22.0881 79.9574 21.7803 79.9574 21.4091V18.6364H80.6278V21.3636C80.6278 21.6818 80.7169 21.9356 80.8949 22.125C81.0748 22.3144 81.304 22.4091 81.5824 22.4091C81.7491 22.4091 81.9186 22.3665 82.0909 22.2812C82.2652 22.196 82.411 22.0653 82.5284 21.8892C82.6477 21.7131 82.7074 21.4886 82.7074 21.2159ZM84.6058 23V18.6364H85.2536V19.3182H85.3104C85.4013 19.0852 85.5481 18.9044 85.7507 18.7756C85.9534 18.6449 86.1967 18.5795 86.4808 18.5795C86.7687 18.5795 87.0083 18.6449 87.1996 18.7756C87.3928 18.9044 87.5433 19.0852 87.6513 19.3182H87.6967C87.8085 19.0928 87.9761 18.9138 88.1996 18.7812C88.4231 18.6468 88.6911 18.5795 89.0036 18.5795C89.3937 18.5795 89.7128 18.7017 89.9609 18.946C90.209 19.1884 90.3331 19.5663 90.3331 20.0795V23H89.6626V20.0795C89.6626 19.7576 89.5746 19.5275 89.3984 19.3892C89.2223 19.2509 89.0149 19.1818 88.7763 19.1818C88.4695 19.1818 88.2318 19.2746 88.0632 19.4602C87.8946 19.6439 87.8104 19.8769 87.8104 20.1591V23H87.1286V20.0114C87.1286 19.7633 87.0481 19.5634 86.8871 19.4119C86.7261 19.2585 86.5187 19.1818 86.2649 19.1818C86.0907 19.1818 85.9278 19.2282 85.7763 19.321C85.6267 19.4138 85.5054 19.5426 85.4126 19.7074C85.3217 19.8703 85.2763 20.0587 85.2763 20.2727V23H84.6058ZM91.5589 24.6364V18.6364H92.2067V19.3295H92.2862C92.3355 19.2538 92.4036 19.1572 92.4908 19.0398C92.5798 18.9205 92.7067 18.8144 92.8714 18.7216C93.0381 18.6269 93.2635 18.5795 93.5476 18.5795C93.915 18.5795 94.2389 18.6714 94.5192 18.8551C94.7995 19.0388 95.0182 19.2992 95.1754 19.6364C95.3326 19.9735 95.4112 20.3712 95.4112 20.8295C95.4112 21.2917 95.3326 21.6922 95.1754 22.0312C95.0182 22.3684 94.8004 22.6297 94.522 22.8153C94.2436 22.9991 93.9226 23.0909 93.5589 23.0909C93.2786 23.0909 93.0542 23.0445 92.8857 22.9517C92.7171 22.857 92.5874 22.75 92.4964 22.6307C92.4055 22.5095 92.3355 22.4091 92.2862 22.3295H92.2294V24.6364H91.5589ZM92.218 20.8182C92.218 21.1477 92.2663 21.4384 92.3629 21.6903C92.4595 21.9403 92.6006 22.1364 92.7862 22.2784C92.9718 22.4186 93.1991 22.4886 93.468 22.4886C93.7483 22.4886 93.9822 22.4148 94.1697 22.267C94.3591 22.1174 94.5012 21.9167 94.5959 21.6648C94.6925 21.411 94.7408 21.1288 94.7408 20.8182C94.7408 20.5114 94.6934 20.2348 94.5987 19.9886C94.5059 19.7405 94.3648 19.5445 94.1754 19.4006C93.9879 19.2547 93.7521 19.1818 93.468 19.1818C93.1953 19.1818 92.9661 19.2509 92.7805 19.3892C92.5949 19.5256 92.4548 19.7169 92.3601 19.9631C92.2654 20.2074 92.218 20.4924 92.218 20.8182Z" fill="white"/>
<path d="M104.705 98.1818H105.545L107.523 103.011H107.591L109.568 98.1818H110.409V104H109.75V99.5795H109.693L107.875 104H107.239L105.42 99.5795H105.364V104H104.705V98.1818ZM113.504 104.091C113.11 104.091 112.764 103.997 112.467 103.81C112.171 103.622 111.94 103.36 111.773 103.023C111.609 102.686 111.526 102.292 111.526 101.841C111.526 101.386 111.609 100.99 111.773 100.651C111.94 100.312 112.171 100.048 112.467 99.8608C112.764 99.6733 113.11 99.5795 113.504 99.5795C113.897 99.5795 114.242 99.6733 114.538 99.8608C114.835 100.048 115.066 100.312 115.231 100.651C115.397 100.99 115.481 101.386 115.481 101.841C115.481 102.292 115.397 102.686 115.231 103.023C115.066 103.36 114.835 103.622 114.538 103.81C114.242 103.997 113.897 104.091 113.504 104.091ZM113.504 103.489C113.803 103.489 114.049 103.412 114.242 103.259C114.435 103.105 114.578 102.903 114.671 102.653C114.764 102.403 114.81 102.133 114.81 101.841C114.81 101.549 114.764 101.277 114.671 101.026C114.578 100.774 114.435 100.57 114.242 100.415C114.049 100.259 113.803 100.182 113.504 100.182C113.204 100.182 112.958 100.259 112.765 100.415C112.572 100.57 112.429 100.774 112.336 101.026C112.243 101.277 112.197 101.549 112.197 101.841C112.197 102.133 112.243 102.403 112.336 102.653C112.429 102.903 112.572 103.105 112.765 103.259C112.958 103.412 113.204 103.489 113.504 103.489ZM119.916 99.6364L118.303 104H117.621L116.007 99.6364H116.734L117.939 103.114H117.984L119.189 99.6364H119.916ZM122.474 104.091C122.054 104.091 121.691 103.998 121.386 103.812C121.083 103.625 120.849 103.364 120.685 103.028C120.522 102.691 120.44 102.299 120.44 101.852C120.44 101.405 120.522 101.011 120.685 100.67C120.849 100.328 121.079 100.061 121.372 99.8693C121.668 99.6761 122.012 99.5795 122.406 99.5795C122.634 99.5795 122.858 99.6174 123.08 99.6932C123.301 99.7689 123.503 99.892 123.685 100.062C123.866 100.231 124.011 100.455 124.119 100.733C124.227 101.011 124.281 101.354 124.281 101.761V102.045H120.918V101.466H123.599C123.599 101.22 123.55 101 123.452 100.807C123.355 100.614 123.217 100.461 123.037 100.349C122.859 100.238 122.649 100.182 122.406 100.182C122.139 100.182 121.908 100.248 121.713 100.381C121.52 100.511 121.371 100.682 121.267 100.892C121.163 101.102 121.111 101.328 121.111 101.568V101.955C121.111 102.284 121.168 102.563 121.281 102.793C121.397 103.02 121.557 103.193 121.761 103.312C121.966 103.43 122.204 103.489 122.474 103.489C122.651 103.489 122.81 103.464 122.952 103.415C123.096 103.364 123.22 103.288 123.324 103.188C123.428 103.085 123.509 102.958 123.565 102.807L124.213 102.989C124.145 103.208 124.03 103.402 123.869 103.568C123.708 103.733 123.509 103.862 123.273 103.955C123.036 104.045 122.77 104.091 122.474 104.091ZM127.642 104V98.1818H129.608C130.063 98.1818 130.436 98.2595 130.727 98.4148C131.019 98.5682 131.235 98.7794 131.375 99.0483C131.515 99.3172 131.585 99.6231 131.585 99.9659C131.585 100.309 131.515 100.613 131.375 100.878C131.235 101.143 131.02 101.351 130.73 101.503C130.44 101.652 130.07 101.727 129.619 101.727H128.028V101.091H129.597C129.907 101.091 130.157 101.045 130.347 100.955C130.538 100.864 130.676 100.735 130.761 100.568C130.848 100.4 130.892 100.199 130.892 99.9659C130.892 99.733 130.848 99.5294 130.761 99.3551C130.674 99.1809 130.535 99.0464 130.344 98.9517C130.152 98.8551 129.9 98.8068 129.585 98.8068H128.347V104H127.642ZM130.381 101.386L131.812 104H130.994L129.585 101.386H130.381ZM132.668 104V99.6364H133.339V104H132.668ZM133.009 98.9091C132.879 98.9091 132.766 98.8646 132.671 98.7756C132.578 98.6866 132.532 98.5795 132.532 98.4545C132.532 98.3295 132.578 98.2225 132.671 98.1335C132.766 98.0445 132.879 98 133.009 98C133.14 98 133.252 98.0445 133.344 98.1335C133.439 98.2225 133.487 98.3295 133.487 98.4545C133.487 98.5795 133.439 98.6866 133.344 98.7756C133.252 98.8646 133.14 98.9091 133.009 98.9091ZM136.328 105.727C136.004 105.727 135.726 105.686 135.493 105.602C135.26 105.521 135.066 105.413 134.911 105.278C134.757 105.146 134.635 105.004 134.544 104.852L135.078 104.477C135.139 104.557 135.215 104.648 135.308 104.75C135.401 104.854 135.528 104.944 135.689 105.02C135.852 105.098 136.065 105.136 136.328 105.136C136.68 105.136 136.971 105.051 137.2 104.881C137.429 104.71 137.544 104.443 137.544 104.08V103.193H137.487C137.438 103.273 137.368 103.371 137.277 103.489C137.188 103.604 137.059 103.707 136.891 103.798C136.724 103.887 136.499 103.932 136.214 103.932C135.862 103.932 135.546 103.848 135.266 103.682C134.987 103.515 134.767 103.273 134.604 102.955C134.443 102.636 134.362 102.25 134.362 101.795C134.362 101.348 134.441 100.959 134.598 100.628C134.755 100.295 134.974 100.037 135.254 99.8551C135.535 99.6714 135.858 99.5795 136.226 99.5795C136.51 99.5795 136.735 99.6269 136.902 99.7216C137.071 99.8144 137.199 99.9205 137.288 100.04C137.379 100.157 137.449 100.254 137.499 100.33H137.567V99.6364H138.214V104.125C138.214 104.5 138.129 104.805 137.959 105.04C137.79 105.277 137.563 105.45 137.277 105.56C136.993 105.671 136.677 105.727 136.328 105.727ZM136.305 103.33C136.574 103.33 136.802 103.268 136.987 103.145C137.173 103.022 137.314 102.845 137.411 102.614C137.507 102.383 137.555 102.106 137.555 101.784C137.555 101.47 137.508 101.192 137.413 100.952C137.319 100.711 137.179 100.523 136.993 100.386C136.807 100.25 136.578 100.182 136.305 100.182C136.021 100.182 135.785 100.254 135.595 100.398C135.408 100.542 135.267 100.735 135.172 100.977C135.079 101.22 135.033 101.489 135.033 101.784C135.033 102.087 135.08 102.355 135.175 102.588C135.271 102.819 135.413 103.001 135.601 103.134C135.79 103.264 136.025 103.33 136.305 103.33ZM140.112 101.375V104H139.442V98.1818H140.112V100.318H140.169C140.271 100.093 140.425 99.9138 140.629 99.7812C140.836 99.6468 141.11 99.5795 141.453 99.5795C141.75 99.5795 142.011 99.6392 142.234 99.7585C142.458 99.8759 142.631 100.057 142.754 100.301C142.879 100.544 142.942 100.852 142.942 101.227V104H142.271V101.273C142.271 100.926 142.181 100.658 142.001 100.469C141.823 100.277 141.576 100.182 141.26 100.182C141.04 100.182 140.843 100.228 140.669 100.321C140.497 100.414 140.36 100.549 140.26 100.727C140.161 100.905 140.112 101.121 140.112 101.375ZM146.066 99.6364V100.205H143.805V99.6364H146.066ZM144.464 98.5909H145.134V102.75C145.134 102.939 145.162 103.081 145.217 103.176C145.273 103.269 145.345 103.331 145.433 103.364C145.522 103.394 145.615 103.409 145.714 103.409C145.788 103.409 145.848 103.405 145.896 103.398C145.943 103.388 145.981 103.381 146.009 103.375L146.146 103.977C146.1 103.994 146.037 104.011 145.955 104.028C145.874 104.047 145.771 104.057 145.646 104.057C145.456 104.057 145.271 104.016 145.089 103.935C144.909 103.853 144.759 103.729 144.64 103.562C144.522 103.396 144.464 103.186 144.464 102.932V98.5909Z" fill="white"/>
<path d="M53.8864 139.636C53.8523 139.348 53.714 139.125 53.4716 138.966C53.2292 138.807 52.9318 138.727 52.5795 138.727C52.322 138.727 52.0966 138.769 51.9034 138.852C51.7121 138.936 51.5625 139.05 51.4545 139.196C51.3485 139.342 51.2955 139.508 51.2955 139.693C51.2955 139.848 51.3324 139.982 51.4062 140.094C51.482 140.204 51.5786 140.295 51.696 140.369C51.8134 140.441 51.9366 140.501 52.0653 140.548C52.1941 140.594 52.3125 140.631 52.4205 140.659L53.0114 140.818C53.1629 140.858 53.3314 140.913 53.517 140.983C53.7045 141.053 53.8835 141.149 54.054 141.27C54.2263 141.389 54.3684 141.543 54.4801 141.73C54.5919 141.918 54.6477 142.148 54.6477 142.42C54.6477 142.735 54.5653 143.019 54.4006 143.273C54.2377 143.527 53.9991 143.728 53.6847 143.878C53.3722 144.027 52.9924 144.102 52.5455 144.102C52.1288 144.102 51.768 144.035 51.4631 143.901C51.16 143.766 50.9214 143.579 50.7472 143.338C50.5748 143.098 50.4773 142.818 50.4545 142.5H51.1818C51.2008 142.72 51.2746 142.902 51.4034 143.045C51.5341 143.187 51.6989 143.294 51.8977 143.364C52.0985 143.432 52.3144 143.466 52.5455 143.466C52.8144 143.466 53.0559 143.422 53.2699 143.335C53.4839 143.246 53.6534 143.123 53.7784 142.966C53.9034 142.807 53.9659 142.621 53.9659 142.409C53.9659 142.216 53.9119 142.059 53.804 141.938C53.696 141.816 53.554 141.718 53.3778 141.642C53.2017 141.566 53.0114 141.5 52.8068 141.443L52.0909 141.239C51.6364 141.108 51.2765 140.921 51.0114 140.679C50.7462 140.437 50.6136 140.119 50.6136 139.727C50.6136 139.402 50.7017 139.117 50.8778 138.875C51.0559 138.631 51.2945 138.441 51.5938 138.307C51.8949 138.17 52.2311 138.102 52.6023 138.102C52.9773 138.102 53.3106 138.17 53.6023 138.304C53.8939 138.437 54.125 138.618 54.2955 138.849C54.4678 139.08 54.5587 139.343 54.5682 139.636H53.8864ZM55.7152 145.636V139.636H56.3629V140.33H56.4425C56.4917 140.254 56.5599 140.157 56.647 140.04C56.736 139.92 56.8629 139.814 57.0277 139.722C57.1944 139.627 57.4197 139.58 57.7038 139.58C58.0713 139.58 58.3951 139.671 58.6754 139.855C58.9557 140.039 59.1745 140.299 59.3317 140.636C59.4889 140.973 59.5675 141.371 59.5675 141.83C59.5675 142.292 59.4889 142.692 59.3317 143.031C59.1745 143.368 58.9567 143.63 58.6783 143.815C58.3999 143.999 58.0788 144.091 57.7152 144.091C57.4349 144.091 57.2105 144.045 57.0419 143.952C56.8733 143.857 56.7436 143.75 56.6527 143.631C56.5618 143.509 56.4917 143.409 56.4425 143.33H56.3857V145.636H55.7152ZM56.3743 141.818C56.3743 142.148 56.4226 142.438 56.5192 142.69C56.6158 142.94 56.7569 143.136 56.9425 143.278C57.1281 143.419 57.3554 143.489 57.6243 143.489C57.9046 143.489 58.1385 143.415 58.326 143.267C58.5154 143.117 58.6574 142.917 58.7521 142.665C58.8487 142.411 58.897 142.129 58.897 141.818C58.897 141.511 58.8497 141.235 58.755 140.989C58.6622 140.741 58.5211 140.545 58.3317 140.401C58.1442 140.255 57.9084 140.182 57.6243 140.182C57.3516 140.182 57.1224 140.251 56.9368 140.389C56.7512 140.526 56.611 140.717 56.5163 140.963C56.4216 141.207 56.3743 141.492 56.3743 141.818ZM61.8743 144.102C61.5978 144.102 61.3468 144.05 61.1214 143.946C60.8961 143.84 60.7171 143.688 60.5845 143.489C60.4519 143.288 60.3857 143.045 60.3857 142.761C60.3857 142.511 60.4349 142.309 60.5334 142.153C60.6319 141.996 60.7635 141.873 60.9283 141.784C61.093 141.695 61.2749 141.629 61.4737 141.585C61.6745 141.54 61.8762 141.504 62.0788 141.477C62.344 141.443 62.5589 141.418 62.7237 141.401C62.8904 141.382 63.0116 141.35 63.0874 141.307C63.165 141.263 63.2038 141.187 63.2038 141.08V141.057C63.2038 140.777 63.1271 140.559 62.9737 140.403C62.8222 140.248 62.5921 140.17 62.2834 140.17C61.9633 140.17 61.7124 140.241 61.5305 140.381C61.3487 140.521 61.2209 140.67 61.147 140.83L60.5107 140.602C60.6243 140.337 60.7758 140.131 60.9652 139.983C61.1565 139.833 61.3648 139.729 61.5902 139.67C61.8175 139.61 62.041 139.58 62.2607 139.58C62.4008 139.58 62.5618 139.597 62.7436 139.631C62.9273 139.663 63.1044 139.73 63.2749 139.832C63.4472 139.935 63.5902 140.089 63.7038 140.295C63.8175 140.502 63.8743 140.778 63.8743 141.125V144H63.2038V143.409H63.1697C63.1243 143.504 63.0485 143.605 62.9425 143.713C62.8364 143.821 62.6953 143.913 62.5192 143.989C62.343 144.064 62.1281 144.102 61.8743 144.102ZM61.9766 143.5C62.2417 143.5 62.4652 143.448 62.647 143.344C62.8307 143.24 62.969 143.105 63.0618 142.94C63.1565 142.776 63.2038 142.602 63.2038 142.42V141.807C63.1754 141.841 63.1129 141.872 63.0163 141.901C62.9216 141.927 62.8118 141.951 62.6868 141.972C62.5637 141.991 62.4434 142.008 62.326 142.023C62.2105 142.036 62.1167 142.047 62.0447 142.057C61.8705 142.08 61.7076 142.116 61.5561 142.168C61.4065 142.217 61.2853 142.292 61.1925 142.392C61.1016 142.491 61.0561 142.625 61.0561 142.795C61.0561 143.028 61.1423 143.205 61.3146 143.324C61.4889 143.441 61.7095 143.5 61.9766 143.5ZM66.8707 144.091C66.4616 144.091 66.1094 143.994 65.8139 143.801C65.5185 143.608 65.2912 143.342 65.1321 143.003C64.973 142.664 64.8935 142.277 64.8935 141.841C64.8935 141.398 64.9749 141.007 65.1378 140.668C65.3026 140.327 65.5317 140.061 65.8253 139.869C66.1207 139.676 66.4654 139.58 66.8594 139.58C67.1662 139.58 67.4427 139.636 67.6889 139.75C67.9351 139.864 68.1368 140.023 68.294 140.227C68.4512 140.432 68.5488 140.67 68.5866 140.943H67.9162C67.8651 140.744 67.7514 140.568 67.5753 140.415C67.401 140.259 67.1662 140.182 66.8707 140.182C66.6094 140.182 66.3802 140.25 66.1832 140.386C65.9882 140.521 65.8357 140.711 65.7259 140.957C65.6179 141.202 65.5639 141.489 65.5639 141.818C65.5639 142.155 65.617 142.449 65.723 142.699C65.831 142.949 65.9825 143.143 66.1776 143.281C66.3745 143.42 66.6056 143.489 66.8707 143.489C67.045 143.489 67.2031 143.458 67.3452 143.398C67.4872 143.337 67.6075 143.25 67.706 143.136C67.8045 143.023 67.8745 142.886 67.9162 142.727H68.5866C68.5488 142.985 68.455 143.217 68.3054 143.423C68.1577 143.628 67.9616 143.791 67.7173 143.912C67.4749 144.031 67.1927 144.091 66.8707 144.091ZM71.3963 144.091C70.9759 144.091 70.6132 143.998 70.3082 143.812C70.0052 143.625 69.7713 143.364 69.6065 143.028C69.4437 142.691 69.3622 142.299 69.3622 141.852C69.3622 141.405 69.4437 141.011 69.6065 140.67C69.7713 140.328 70.0005 140.061 70.294 139.869C70.5895 139.676 70.9342 139.58 71.3281 139.58C71.5554 139.58 71.7798 139.617 72.0014 139.693C72.223 139.769 72.4247 139.892 72.6065 140.062C72.7884 140.231 72.9332 140.455 73.0412 140.733C73.1491 141.011 73.2031 141.354 73.2031 141.761V142.045H69.8395V141.466H72.5213C72.5213 141.22 72.4721 141 72.3736 140.807C72.277 140.614 72.1387 140.461 71.9588 140.349C71.7808 140.238 71.5705 140.182 71.3281 140.182C71.0611 140.182 70.83 140.248 70.6349 140.381C70.4418 140.511 70.2931 140.682 70.1889 140.892C70.0848 141.102 70.0327 141.328 70.0327 141.568V141.955C70.0327 142.284 70.0895 142.563 70.2031 142.793C70.3187 143.02 70.4787 143.193 70.6832 143.312C70.8878 143.43 71.1255 143.489 71.3963 143.489C71.5724 143.489 71.7315 143.464 71.8736 143.415C72.0175 143.364 72.1416 143.288 72.2457 143.188C72.3499 143.085 72.4304 142.958 72.4872 142.807L73.1349 142.989C73.0668 143.208 72.9522 143.402 72.7912 143.568C72.6302 143.733 72.4313 143.862 72.1946 143.955C71.9579 144.045 71.6918 144.091 71.3963 144.091Z" fill="white"/>
<path d="M182.943 102H182.205L184.341 96.1818H185.068L187.205 102H186.466L184.727 97.1023H184.682L182.943 102ZM183.216 99.7273H186.193V100.352H183.216V99.7273ZM189.644 97.6364V98.2045H187.383V97.6364H189.644ZM188.042 96.5909H188.712V100.75C188.712 100.939 188.74 101.081 188.795 101.176C188.852 101.269 188.924 101.331 189.011 101.364C189.1 101.394 189.193 101.409 189.292 101.409C189.366 101.409 189.426 101.405 189.474 101.398C189.521 101.388 189.559 101.381 189.587 101.375L189.724 101.977C189.678 101.994 189.615 102.011 189.533 102.028C189.452 102.047 189.349 102.057 189.224 102.057C189.034 102.057 188.849 102.016 188.667 101.935C188.487 101.853 188.337 101.729 188.218 101.562C188.101 101.396 188.042 101.186 188.042 100.932V96.5909ZM192.55 97.6364V98.2045H190.289V97.6364H192.55ZM190.948 96.5909H191.619V100.75C191.619 100.939 191.646 101.081 191.701 101.176C191.758 101.269 191.83 101.331 191.917 101.364C192.006 101.394 192.1 101.409 192.198 101.409C192.272 101.409 192.333 101.405 192.38 101.398C192.427 101.388 192.465 101.381 192.494 101.375L192.63 101.977C192.585 101.994 192.521 102.011 192.44 102.028C192.358 102.047 192.255 102.057 192.13 102.057C191.941 102.057 191.755 102.016 191.573 101.935C191.393 101.853 191.244 101.729 191.124 101.562C191.007 101.396 190.948 101.186 190.948 100.932V96.5909ZM194.843 102.102C194.567 102.102 194.316 102.05 194.09 101.946C193.865 101.84 193.686 101.688 193.553 101.489C193.421 101.288 193.354 101.045 193.354 100.761C193.354 100.511 193.404 100.309 193.502 100.153C193.601 99.9962 193.732 99.8731 193.897 99.7841C194.062 99.6951 194.244 99.6288 194.442 99.5852C194.643 99.5398 194.845 99.5038 195.048 99.4773C195.313 99.4432 195.528 99.4176 195.692 99.4006C195.859 99.3816 195.98 99.3504 196.056 99.3068C196.134 99.2633 196.173 99.1875 196.173 99.0795V99.0568C196.173 98.7765 196.096 98.5587 195.942 98.4034C195.791 98.2481 195.561 98.1705 195.252 98.1705C194.932 98.1705 194.681 98.2405 194.499 98.3807C194.317 98.5208 194.19 98.6705 194.116 98.8295L193.479 98.6023C193.593 98.3371 193.745 98.1307 193.934 97.983C194.125 97.8333 194.334 97.7292 194.559 97.6705C194.786 97.6098 195.01 97.5795 195.229 97.5795C195.37 97.5795 195.531 97.5966 195.712 97.6307C195.896 97.6629 196.073 97.7301 196.244 97.8324C196.416 97.9347 196.559 98.089 196.673 98.2955C196.786 98.5019 196.843 98.7784 196.843 99.125V102H196.173V101.409H196.138C196.093 101.504 196.017 101.605 195.911 101.713C195.805 101.821 195.664 101.913 195.488 101.989C195.312 102.064 195.097 102.102 194.843 102.102ZM194.945 101.5C195.21 101.5 195.434 101.448 195.616 101.344C195.799 101.24 195.938 101.105 196.031 100.94C196.125 100.776 196.173 100.602 196.173 100.42V99.8068C196.144 99.8409 196.082 99.8722 195.985 99.9006C195.89 99.9271 195.781 99.9508 195.656 99.9716C195.532 99.9905 195.412 100.008 195.295 100.023C195.179 100.036 195.085 100.047 195.013 100.057C194.839 100.08 194.676 100.116 194.525 100.168C194.375 100.217 194.254 100.292 194.161 100.392C194.07 100.491 194.025 100.625 194.025 100.795C194.025 101.028 194.111 101.205 194.283 101.324C194.458 101.441 194.678 101.5 194.945 101.5ZM199.839 102.091C199.43 102.091 199.078 101.994 198.783 101.801C198.487 101.608 198.26 101.342 198.101 101.003C197.942 100.664 197.862 100.277 197.862 99.8409C197.862 99.3977 197.944 99.0066 198.107 98.6676C198.271 98.3267 198.5 98.0606 198.794 97.8693C199.089 97.6761 199.434 97.5795 199.828 97.5795C200.135 97.5795 200.411 97.6364 200.658 97.75C200.904 97.8636 201.106 98.0227 201.263 98.2273C201.42 98.4318 201.518 98.6705 201.555 98.9432H200.885C200.834 98.7443 200.72 98.5682 200.544 98.4148C200.37 98.2595 200.135 98.1818 199.839 98.1818C199.578 98.1818 199.349 98.25 199.152 98.3864C198.957 98.5208 198.804 98.7112 198.695 98.9574C198.587 99.2017 198.533 99.4886 198.533 99.8182C198.533 100.155 198.586 100.449 198.692 100.699C198.8 100.949 198.951 101.143 199.146 101.281C199.343 101.42 199.574 101.489 199.839 101.489C200.014 101.489 200.172 101.458 200.314 101.398C200.456 101.337 200.576 101.25 200.675 101.136C200.773 101.023 200.843 100.886 200.885 100.727H201.555C201.518 100.985 201.424 101.217 201.274 101.423C201.126 101.628 200.93 101.791 200.686 101.912C200.444 102.031 200.161 102.091 199.839 102.091ZM203.161 100.409L203.149 99.5795H203.286L205.195 97.6364H206.024L203.99 99.6932H203.933L203.161 100.409ZM202.536 102V96.1818H203.206V102H202.536ZM205.308 102L203.604 99.8409L204.081 99.375L206.161 102H205.308Z" fill="white"/>
<path d="M225.057 81V72.2727H226.114V76.6023H226.216L230.136 72.2727H231.517L227.852 76.2102L231.517 81H230.239L227.205 76.9432L226.114 78.1705V81H225.057Z" fill="white"/>
<rect x="214.5" y="63.5" width="27" height="27" rx="1.5" stroke="white"/>
<path d="M220.682 98C220.619 97.8087 220.537 97.6373 220.435 97.4858C220.334 97.3324 220.214 97.2017 220.074 97.0938C219.936 96.9858 219.778 96.9034 219.602 96.8466C219.426 96.7898 219.233 96.7614 219.023 96.7614C218.678 96.7614 218.365 96.8504 218.082 97.0284C217.8 97.2064 217.576 97.4688 217.409 97.8153C217.242 98.1619 217.159 98.5871 217.159 99.0909C217.159 99.5947 217.243 100.02 217.412 100.366C217.58 100.713 217.809 100.975 218.097 101.153C218.384 101.331 218.708 101.42 219.068 101.42C219.402 101.42 219.695 101.349 219.949 101.207C220.205 101.063 220.403 100.861 220.545 100.599C220.689 100.336 220.761 100.027 220.761 99.6705L220.977 99.7159H219.227V99.0909H221.443V99.7159C221.443 100.195 221.341 100.612 221.136 100.966C220.934 101.32 220.653 101.595 220.295 101.79C219.939 101.983 219.53 102.08 219.068 102.08C218.553 102.08 218.1 101.958 217.71 101.716C217.322 101.473 217.019 101.129 216.801 100.682C216.585 100.235 216.477 99.7045 216.477 99.0909C216.477 98.6307 216.539 98.2169 216.662 97.8494C216.787 97.4801 216.963 97.1657 217.19 96.9062C217.418 96.6468 217.687 96.4479 217.997 96.3097C218.308 96.1714 218.65 96.1023 219.023 96.1023C219.33 96.1023 219.616 96.1487 219.881 96.2415C220.148 96.3324 220.385 96.4621 220.594 96.6307C220.804 96.7973 220.979 96.9972 221.119 97.2301C221.259 97.4612 221.356 97.7178 221.409 98H220.682ZM225.309 100.216V97.6364H225.979V102H225.309V101.261H225.263C225.161 101.483 225.002 101.671 224.786 101.827C224.57 101.98 224.298 102.057 223.968 102.057C223.695 102.057 223.453 101.997 223.241 101.878C223.029 101.757 222.862 101.575 222.741 101.332C222.62 101.088 222.559 100.78 222.559 100.409V97.6364H223.229V100.364C223.229 100.682 223.318 100.936 223.496 101.125C223.676 101.314 223.906 101.409 224.184 101.409C224.351 101.409 224.52 101.366 224.692 101.281C224.867 101.196 225.013 101.065 225.13 100.889C225.249 100.713 225.309 100.489 225.309 100.216ZM228.491 102.102C228.215 102.102 227.964 102.05 227.739 101.946C227.513 101.84 227.334 101.688 227.202 101.489C227.069 101.288 227.003 101.045 227.003 100.761C227.003 100.511 227.052 100.309 227.151 100.153C227.249 99.9962 227.381 99.8731 227.545 99.7841C227.71 99.6951 227.892 99.6288 228.091 99.5852C228.292 99.5398 228.493 99.5038 228.696 99.4773C228.961 99.4432 229.176 99.4176 229.341 99.4006C229.508 99.3816 229.629 99.3504 229.705 99.3068C229.782 99.2633 229.821 99.1875 229.821 99.0795V99.0568C229.821 98.7765 229.744 98.5587 229.591 98.4034C229.439 98.2481 229.209 98.1705 228.901 98.1705C228.58 98.1705 228.33 98.2405 228.148 98.3807C227.966 98.5208 227.838 98.6705 227.764 98.8295L227.128 98.6023C227.241 98.3371 227.393 98.1307 227.582 97.983C227.774 97.8333 227.982 97.7292 228.207 97.6705C228.435 97.6098 228.658 97.5795 228.878 97.5795C229.018 97.5795 229.179 97.5966 229.361 97.6307C229.545 97.6629 229.722 97.7301 229.892 97.8324C230.064 97.9347 230.207 98.089 230.321 98.2955C230.435 98.5019 230.491 98.7784 230.491 99.125V102H229.821V101.409H229.787C229.741 101.504 229.666 101.605 229.56 101.713C229.454 101.821 229.313 101.913 229.136 101.989C228.96 102.064 228.745 102.102 228.491 102.102ZM228.594 101.5C228.859 101.5 229.082 101.448 229.264 101.344C229.448 101.24 229.586 101.105 229.679 100.94C229.774 100.776 229.821 100.602 229.821 100.42V99.8068C229.793 99.8409 229.73 99.8722 229.634 99.9006C229.539 99.9271 229.429 99.9508 229.304 99.9716C229.181 99.9905 229.061 100.008 228.943 100.023C228.828 100.036 228.734 100.047 228.662 100.057C228.488 100.08 228.325 100.116 228.173 100.168C228.024 100.217 227.902 100.292 227.81 100.392C227.719 100.491 227.673 100.625 227.673 100.795C227.673 101.028 227.759 101.205 227.932 101.324C228.106 101.441 228.327 101.5 228.594 101.5ZM231.715 102V97.6364H232.363V98.2955H232.408C232.488 98.0795 232.632 97.9044 232.84 97.7699C233.049 97.6354 233.283 97.5682 233.545 97.5682C233.594 97.5682 233.656 97.5691 233.729 97.571C233.803 97.5729 233.859 97.5758 233.897 97.5795V98.2614C233.874 98.2557 233.822 98.2472 233.741 98.2358C233.661 98.2225 233.577 98.2159 233.488 98.2159C233.276 98.2159 233.086 98.2604 232.92 98.3494C232.755 98.4366 232.624 98.5578 232.528 98.7131C232.433 98.8665 232.386 99.0417 232.386 99.2386V102H231.715ZM236.207 102.091C235.843 102.091 235.522 101.999 235.244 101.815C234.965 101.63 234.747 101.368 234.59 101.031C234.433 100.692 234.354 100.292 234.354 99.8295C234.354 99.3712 234.433 98.9735 234.59 98.6364C234.747 98.2992 234.966 98.0388 235.246 97.8551C235.527 97.6714 235.851 97.5795 236.218 97.5795C236.502 97.5795 236.727 97.6269 236.891 97.7216C237.058 97.8144 237.185 97.9205 237.272 98.0398C237.361 98.1572 237.43 98.2538 237.479 98.3295H237.536V96.1818H238.207V102H237.559V101.33H237.479C237.43 101.409 237.36 101.509 237.269 101.631C237.178 101.75 237.049 101.857 236.88 101.952C236.711 102.045 236.487 102.091 236.207 102.091ZM236.298 101.489C236.567 101.489 236.794 101.419 236.979 101.278C237.165 101.136 237.306 100.94 237.403 100.69C237.499 100.438 237.548 100.148 237.548 99.8182C237.548 99.4924 237.5 99.2074 237.406 98.9631C237.311 98.7169 237.171 98.5256 236.985 98.3892C236.799 98.2509 236.57 98.1818 236.298 98.1818C236.013 98.1818 235.777 98.2547 235.587 98.4006C235.4 98.5445 235.259 98.7405 235.164 98.9886C235.071 99.2348 235.025 99.5114 235.025 99.8182C235.025 100.129 235.072 100.411 235.167 100.665C235.263 100.917 235.406 101.117 235.593 101.267C235.782 101.415 236.017 101.489 236.298 101.489Z" fill="white"/>
<path d="M258.057 81V72.2727H259.114V80.0625H263.17V81H258.057Z" fill="white"/>
<rect x="247.5" y="63.5" width="27" height="27" rx="1.5" stroke="white"/>
<path d="M254.578 98H253.873C253.832 97.7973 253.759 97.6193 253.654 97.4659C253.552 97.3125 253.427 97.1837 253.279 97.0795C253.134 96.9735 252.972 96.8939 252.794 96.8409C252.616 96.7879 252.43 96.7614 252.237 96.7614C251.885 96.7614 251.565 96.8504 251.279 97.0284C250.995 97.2064 250.769 97.4688 250.6 97.8153C250.434 98.1619 250.35 98.5871 250.35 99.0909C250.35 99.5947 250.434 100.02 250.6 100.366C250.769 100.713 250.995 100.975 251.279 101.153C251.565 101.331 251.885 101.42 252.237 101.42C252.43 101.42 252.616 101.394 252.794 101.341C252.972 101.288 253.134 101.209 253.279 101.105C253.427 100.999 253.552 100.869 253.654 100.716C253.759 100.561 253.832 100.383 253.873 100.182H254.578C254.525 100.479 254.428 100.745 254.288 100.98C254.148 101.215 253.974 101.415 253.765 101.58C253.557 101.742 253.323 101.866 253.064 101.952C252.806 102.037 252.53 102.08 252.237 102.08C251.741 102.08 251.299 101.958 250.913 101.716C250.527 101.473 250.223 101.129 250.001 100.682C249.779 100.235 249.669 99.7045 249.669 99.0909C249.669 98.4773 249.779 97.947 250.001 97.5C250.223 97.053 250.527 96.7083 250.913 96.4659C251.299 96.2235 251.741 96.1023 252.237 96.1023C252.53 96.1023 252.806 96.1449 253.064 96.2301C253.323 96.3153 253.557 96.4403 253.765 96.6051C253.974 96.768 254.148 96.9669 254.288 97.2017C254.428 97.4347 254.525 97.7008 254.578 98ZM256.296 99.375V102H255.625V96.1818H256.296V98.3182H256.353C256.455 98.0928 256.608 97.9138 256.813 97.7812C257.019 97.6468 257.294 97.5795 257.637 97.5795C257.934 97.5795 258.194 97.6392 258.418 97.7585C258.641 97.8759 258.815 98.0568 258.938 98.3011C259.063 98.5436 259.125 98.8523 259.125 99.2273V102H258.455V99.2727C258.455 98.9261 258.365 98.6581 258.185 98.4688C258.007 98.2775 257.76 98.1818 257.444 98.1818C257.224 98.1818 257.027 98.2282 256.853 98.321C256.68 98.4138 256.544 98.5492 256.444 98.7273C256.345 98.9053 256.296 99.1212 256.296 99.375ZM262.181 102.091C261.761 102.091 261.398 101.998 261.093 101.812C260.79 101.625 260.556 101.364 260.392 101.028C260.229 100.691 260.147 100.299 260.147 99.8523C260.147 99.4053 260.229 99.0114 260.392 98.6705C260.556 98.3277 260.786 98.0606 261.079 97.8693C261.375 97.6761 261.719 97.5795 262.113 97.5795C262.341 97.5795 262.565 97.6174 262.787 97.6932C263.008 97.7689 263.21 97.892 263.392 98.0625C263.574 98.2311 263.718 98.4545 263.826 98.733C263.934 99.0114 263.988 99.3542 263.988 99.7614V100.045H260.625V99.4659H263.306C263.306 99.2197 263.257 99 263.159 98.8068C263.062 98.6136 262.924 98.4612 262.744 98.3494C262.566 98.2377 262.356 98.1818 262.113 98.1818C261.846 98.1818 261.615 98.2481 261.42 98.3807C261.227 98.5114 261.078 98.6818 260.974 98.892C260.87 99.1023 260.818 99.3277 260.818 99.5682V99.9545C260.818 100.284 260.875 100.563 260.988 100.793C261.104 101.02 261.264 101.193 261.468 101.312C261.673 101.43 261.911 101.489 262.181 101.489C262.358 101.489 262.517 101.464 262.659 101.415C262.803 101.364 262.927 101.288 263.031 101.188C263.135 101.085 263.216 100.958 263.272 100.807L263.92 100.989C263.852 101.208 263.737 101.402 263.576 101.568C263.415 101.733 263.217 101.862 262.98 101.955C262.743 102.045 262.477 102.091 262.181 102.091ZM266.292 102.102C266.016 102.102 265.765 102.05 265.539 101.946C265.314 101.84 265.135 101.688 265.002 101.489C264.87 101.288 264.804 101.045 264.804 100.761C264.804 100.511 264.853 100.309 264.951 100.153C265.05 99.9962 265.181 99.8731 265.346 99.7841C265.511 99.6951 265.693 99.6288 265.892 99.5852C266.092 99.5398 266.294 99.5038 266.497 99.4773C266.762 99.4432 266.977 99.4176 267.142 99.4006C267.308 99.3816 267.43 99.3504 267.505 99.3068C267.583 99.2633 267.622 99.1875 267.622 99.0795V99.0568C267.622 98.7765 267.545 98.5587 267.392 98.4034C267.24 98.2481 267.01 98.1705 266.701 98.1705C266.381 98.1705 266.13 98.2405 265.949 98.3807C265.767 98.5208 265.639 98.6705 265.565 98.8295L264.929 98.6023C265.042 98.3371 265.194 98.1307 265.383 97.983C265.574 97.8333 265.783 97.7292 266.008 97.6705C266.235 97.6098 266.459 97.5795 266.679 97.5795C266.819 97.5795 266.98 97.5966 267.162 97.6307C267.345 97.6629 267.522 97.7301 267.693 97.8324C267.865 97.9347 268.008 98.089 268.122 98.2955C268.235 98.5019 268.292 98.7784 268.292 99.125V102H267.622V101.409H267.588C267.542 101.504 267.467 101.605 267.36 101.713C267.254 101.821 267.113 101.913 266.937 101.989C266.761 102.064 266.546 102.102 266.292 102.102ZM266.395 101.5C266.66 101.5 266.883 101.448 267.065 101.344C267.249 101.24 267.387 101.105 267.48 100.94C267.574 100.776 267.622 100.602 267.622 100.42V99.8068C267.593 99.8409 267.531 99.8722 267.434 99.9006C267.34 99.9271 267.23 99.9508 267.105 99.9716C266.982 99.9905 266.861 100.008 266.744 100.023C266.628 100.036 266.535 100.047 266.463 100.057C266.288 100.08 266.126 100.116 265.974 100.168C265.824 100.217 265.703 100.292 265.61 100.392C265.52 100.491 265.474 100.625 265.474 100.795C265.474 101.028 265.56 101.205 265.733 101.324C265.907 101.441 266.127 101.5 266.395 101.5ZM271.414 97.6364V98.2045H269.152V97.6364H271.414ZM269.811 96.5909H270.482V100.75C270.482 100.939 270.509 101.081 270.564 101.176C270.621 101.269 270.693 101.331 270.78 101.364C270.869 101.394 270.963 101.409 271.061 101.409C271.135 101.409 271.196 101.405 271.243 101.398C271.291 101.388 271.328 101.381 271.357 101.375L271.493 101.977C271.448 101.994 271.384 102.011 271.303 102.028C271.221 102.047 271.118 102.057 270.993 102.057C270.804 102.057 270.618 102.016 270.436 101.935C270.257 101.853 270.107 101.729 269.988 101.562C269.87 101.396 269.811 101.186 269.811 100.932V96.5909ZM250.447 106.182H251.288L253.265 111.011H253.333L255.31 106.182H256.151V112H255.492V107.58H255.435L253.617 112H252.981L251.163 107.58H251.106V112H250.447V106.182ZM259.246 112.091C258.852 112.091 258.506 111.997 258.209 111.81C257.913 111.622 257.682 111.36 257.516 111.023C257.351 110.686 257.268 110.292 257.268 109.841C257.268 109.386 257.351 108.99 257.516 108.651C257.682 108.312 257.913 108.048 258.209 107.861C258.506 107.673 258.852 107.58 259.246 107.58C259.64 107.58 259.984 107.673 260.28 107.861C260.577 108.048 260.808 108.312 260.973 108.651C261.14 108.99 261.223 109.386 261.223 109.841C261.223 110.292 261.14 110.686 260.973 111.023C260.808 111.36 260.577 111.622 260.28 111.81C259.984 111.997 259.64 112.091 259.246 112.091ZM259.246 111.489C259.545 111.489 259.791 111.412 259.984 111.259C260.178 111.105 260.321 110.903 260.413 110.653C260.506 110.403 260.553 110.133 260.553 109.841C260.553 109.549 260.506 109.277 260.413 109.026C260.321 108.774 260.178 108.57 259.984 108.415C259.791 108.259 259.545 108.182 259.246 108.182C258.946 108.182 258.7 108.259 258.507 108.415C258.314 108.57 258.171 108.774 258.078 109.026C257.985 109.277 257.939 109.549 257.939 109.841C257.939 110.133 257.985 110.403 258.078 110.653C258.171 110.903 258.314 111.105 258.507 111.259C258.7 111.412 258.946 111.489 259.246 111.489ZM263.894 112.091C263.531 112.091 263.21 111.999 262.931 111.815C262.653 111.63 262.435 111.368 262.278 111.031C262.121 110.692 262.042 110.292 262.042 109.83C262.042 109.371 262.121 108.973 262.278 108.636C262.435 108.299 262.654 108.039 262.934 107.855C263.214 107.671 263.538 107.58 263.906 107.58C264.19 107.58 264.414 107.627 264.579 107.722C264.746 107.814 264.872 107.92 264.96 108.04C265.049 108.157 265.118 108.254 265.167 108.33H265.224V106.182H265.894V112H265.246V111.33H265.167C265.118 111.409 265.048 111.509 264.957 111.631C264.866 111.75 264.736 111.857 264.567 111.952C264.399 112.045 264.174 112.091 263.894 112.091ZM263.985 111.489C264.254 111.489 264.481 111.419 264.667 111.278C264.853 111.136 264.994 110.94 265.09 110.69C265.187 110.438 265.235 110.148 265.235 109.818C265.235 109.492 265.188 109.207 265.093 108.963C264.998 108.717 264.858 108.526 264.673 108.389C264.487 108.251 264.258 108.182 263.985 108.182C263.701 108.182 263.464 108.255 263.275 108.401C263.087 108.545 262.946 108.741 262.852 108.989C262.759 109.235 262.712 109.511 262.712 109.818C262.712 110.129 262.76 110.411 262.854 110.665C262.951 110.917 263.093 111.117 263.281 111.267C263.47 111.415 263.705 111.489 263.985 111.489ZM269.045 112.091C268.624 112.091 268.262 111.998 267.957 111.812C267.654 111.625 267.42 111.364 267.255 111.028C267.092 110.691 267.011 110.299 267.011 109.852C267.011 109.405 267.092 109.011 267.255 108.67C267.42 108.328 267.649 108.061 267.942 107.869C268.238 107.676 268.583 107.58 268.977 107.58C269.204 107.58 269.428 107.617 269.65 107.693C269.871 107.769 270.073 107.892 270.255 108.062C270.437 108.231 270.582 108.455 270.69 108.733C270.798 109.011 270.852 109.354 270.852 109.761V110.045H267.488V109.466H270.17C270.17 109.22 270.121 109 270.022 108.807C269.925 108.614 269.787 108.461 269.607 108.349C269.429 108.238 269.219 108.182 268.977 108.182C268.71 108.182 268.478 108.248 268.283 108.381C268.09 108.511 267.942 108.682 267.837 108.892C267.733 109.102 267.681 109.328 267.681 109.568V109.955C267.681 110.284 267.738 110.563 267.852 110.793C267.967 111.02 268.127 111.193 268.332 111.312C268.536 111.43 268.774 111.489 269.045 111.489C269.221 111.489 269.38 111.464 269.522 111.415C269.666 111.364 269.79 111.288 269.894 111.188C269.998 111.085 270.079 110.958 270.136 110.807L270.783 110.989C270.715 111.208 270.601 111.402 270.44 111.568C270.279 111.733 270.08 111.862 269.843 111.955C269.606 112.045 269.34 112.091 269.045 112.091Z" fill="white"/>
</svg>
