<svg width="304" height="167" viewBox="0 0 304 167" fill="none" xmlns="http://www.w3.org/2000/svg">
<path d="M65.4148 42H64.3068L67.5114 33.2727H68.6023L71.8068 42H70.6989L68.0909 34.6534H68.0227L65.4148 42ZM65.8239 38.5909H70.2898V39.5284H65.8239V38.5909Z" fill="white"/>
<rect x="54.5" y="24.5" width="27" height="27" rx="1.5" stroke="white"/>
<rect x="54.5" y="124.5" width="93" height="27" rx="1.5" stroke="white"/>
<path d="M102.83 35.4545C102.778 35.0227 102.571 34.6875 102.207 34.4489C101.844 34.2102 101.398 34.0909 100.869 34.0909C100.483 34.0909 100.145 34.1534 99.8551 34.2784C99.5682 34.4034 99.3438 34.5753 99.1818 34.794C99.0227 35.0128 98.9432 35.2614 98.9432 35.5398C98.9432 35.7727 98.9986 35.973 99.1094 36.1406C99.223 36.3054 99.3679 36.4432 99.544 36.554C99.7202 36.6619 99.9048 36.7514 100.098 36.8224C100.291 36.8906 100.469 36.946 100.631 36.9886L101.517 37.2273C101.744 37.2869 101.997 37.3693 102.276 37.4744C102.557 37.5795 102.825 37.723 103.081 37.9048C103.339 38.0838 103.553 38.3139 103.72 38.5952C103.888 38.8764 103.972 39.2216 103.972 39.6307C103.972 40.1023 103.848 40.5284 103.601 40.9091C103.357 41.2898 102.999 41.5923 102.527 41.8168C102.058 42.0412 101.489 42.1534 100.818 42.1534C100.193 42.1534 99.652 42.0526 99.1946 41.8509C98.7401 41.6491 98.3821 41.3679 98.1207 41.0071C97.8622 40.6463 97.7159 40.2273 97.6818 39.75H98.7727C98.8011 40.0795 98.9119 40.3523 99.1051 40.5682C99.3011 40.7812 99.5483 40.9403 99.8466 41.0455C100.148 41.1477 100.472 41.1989 100.818 41.1989C101.222 41.1989 101.584 41.1335 101.905 41.0028C102.226 40.8693 102.48 40.6847 102.668 40.4489C102.855 40.2102 102.949 39.9318 102.949 39.6136C102.949 39.3239 102.868 39.0881 102.706 38.9062C102.544 38.7244 102.331 38.5767 102.067 38.4631C101.803 38.3494 101.517 38.25 101.21 38.1648L100.136 37.858C99.4545 37.6619 98.9148 37.3821 98.517 37.0185C98.1193 36.6548 97.9205 36.179 97.9205 35.5909C97.9205 35.1023 98.0526 34.6761 98.3168 34.3125C98.5838 33.946 98.9418 33.6619 99.3906 33.4602C99.8423 33.2557 100.347 33.1534 100.903 33.1534C101.466 33.1534 101.966 33.2543 102.403 33.456C102.841 33.6548 103.188 33.9276 103.443 34.2741C103.702 34.6207 103.838 35.0142 103.852 35.4545H102.83Z" fill="white"/>
<path d="M133.75 42H131.057V33.2727H133.869C134.716 33.2727 135.44 33.4474 136.043 33.7969C136.645 34.1435 137.107 34.642 137.428 35.2926C137.749 35.9403 137.909 36.7159 137.909 37.6193C137.909 38.5284 137.747 39.3111 137.423 39.9673C137.099 40.6207 136.628 41.1236 136.009 41.4759C135.389 41.8253 134.636 42 133.75 42ZM132.114 41.0625H133.682C134.403 41.0625 135.001 40.9233 135.476 40.6449C135.95 40.3665 136.304 39.9702 136.537 39.456C136.77 38.9418 136.886 38.3295 136.886 37.6193C136.886 36.9148 136.771 36.3082 136.541 35.7997C136.311 35.2884 135.967 34.8963 135.51 34.6236C135.053 34.348 134.483 34.2102 133.801 34.2102H132.114V41.0625Z" fill="white"/>
<rect x="87.5" y="24.5" width="27" height="27" rx="1.5" stroke="white"/>
<path d="M248.398 58.2727H249.455V64.5114C249.455 65.0682 249.352 65.5412 249.148 65.9304C248.943 66.3196 248.655 66.6151 248.283 66.8168C247.911 67.0185 247.472 67.1193 246.966 67.1193C246.489 67.1193 246.064 67.0327 245.692 66.8594C245.32 66.6832 245.027 66.4332 244.814 66.1094C244.601 65.7855 244.494 65.4006 244.494 64.9545H245.534C245.534 65.2017 245.595 65.4176 245.717 65.6023C245.842 65.7841 246.013 65.9261 246.229 66.0284C246.445 66.1307 246.69 66.1818 246.966 66.1818C247.27 66.1818 247.528 66.1179 247.741 65.9901C247.955 65.8622 248.116 65.6747 248.227 65.4276C248.341 65.1776 248.398 64.8722 248.398 64.5114V58.2727Z" fill="white"/>
<rect x="234.5" y="49.5" width="27" height="27" rx="1.5" stroke="white"/>
<rect x="120.5" y="24.5" width="27" height="27" rx="1.5" stroke="white"/>
<path d="M65.2102 81.9318V81.25L70.6989 78.4545V79.5455L66.4886 81.5739L66.5227 81.5057V81.6761L66.4886 81.608L70.6989 83.6364V84.7273L65.2102 81.9318Z" fill="white"/>
<rect x="54.5" y="67.5" width="27" height="27" rx="1.5" stroke="white"/>
<path d="M136.699 81.9318L131.21 84.7273V83.6364L135.42 81.608L135.386 81.6761V81.5057L135.42 81.5739L131.21 79.5455V78.4545L136.699 81.25V81.9318Z" fill="white"/>
<rect x="120.5" y="67.5" width="27" height="27" rx="1.5" stroke="white"/>
<path d="M11.7045 36.1818H12.5455L14.5227 41.0114H14.5909L16.5682 36.1818H17.4091V42H16.75V37.5795H16.6932L14.875 42H14.2386L12.4205 37.5795H12.3636V42H11.7045V36.1818ZM20.5036 42.0909C20.1096 42.0909 19.764 41.9972 19.4666 41.8097C19.1712 41.6222 18.9401 41.3598 18.7734 41.0227C18.6087 40.6856 18.5263 40.2917 18.5263 39.8409C18.5263 39.3864 18.6087 38.9896 18.7734 38.6506C18.9401 38.3116 19.1712 38.0483 19.4666 37.8608C19.764 37.6733 20.1096 37.5795 20.5036 37.5795C20.8975 37.5795 21.2422 37.6733 21.5376 37.8608C21.835 38.0483 22.0661 38.3116 22.2308 38.6506C22.3975 38.9896 22.4808 39.3864 22.4808 39.8409C22.4808 40.2917 22.3975 40.6856 22.2308 41.0227C22.0661 41.3598 21.835 41.6222 21.5376 41.8097C21.2422 41.9972 20.8975 42.0909 20.5036 42.0909ZM20.5036 41.4886C20.8028 41.4886 21.049 41.4119 21.2422 41.2585C21.4354 41.1051 21.5784 40.9034 21.6712 40.6534C21.764 40.4034 21.8104 40.1326 21.8104 39.8409C21.8104 39.5492 21.764 39.2775 21.6712 39.0256C21.5784 38.7737 21.4354 38.5701 21.2422 38.4148C21.049 38.2595 20.8028 38.1818 20.5036 38.1818C20.2043 38.1818 19.9581 38.2595 19.7649 38.4148C19.5717 38.5701 19.4287 38.7737 19.3359 39.0256C19.2431 39.2775 19.1967 39.5492 19.1967 39.8409C19.1967 40.1326 19.2431 40.4034 19.3359 40.6534C19.4287 40.9034 19.5717 41.1051 19.7649 41.2585C19.9581 41.4119 20.2043 41.4886 20.5036 41.4886ZM26.9162 37.6364L25.3026 42H24.6207L23.0071 37.6364H23.7344L24.9389 41.1136H24.9844L26.1889 37.6364H26.9162ZM29.4744 42.0909C29.054 42.0909 28.6913 41.9981 28.3864 41.8125C28.0833 41.625 27.8494 41.3636 27.6847 41.0284C27.5218 40.6913 27.4403 40.2992 27.4403 39.8523C27.4403 39.4053 27.5218 39.0114 27.6847 38.6705C27.8494 38.3277 28.0786 38.0606 28.3722 37.8693C28.6676 37.6761 29.0123 37.5795 29.4062 37.5795C29.6335 37.5795 29.858 37.6174 30.0795 37.6932C30.3011 37.7689 30.5028 37.892 30.6847 38.0625C30.8665 38.2311 31.0114 38.4545 31.1193 38.733C31.2273 39.0114 31.2812 39.3542 31.2812 39.7614V40.0455H27.9176V39.4659H30.5994C30.5994 39.2197 30.5502 39 30.4517 38.8068C30.3551 38.6136 30.2169 38.4612 30.0369 38.3494C29.8589 38.2377 29.6487 38.1818 29.4062 38.1818C29.1392 38.1818 28.9081 38.2481 28.7131 38.3807C28.5199 38.5114 28.3712 38.6818 28.267 38.892C28.1629 39.1023 28.1108 39.3277 28.1108 39.5682V39.9545C28.1108 40.2841 28.1676 40.5634 28.2812 40.7926C28.3968 41.0199 28.5568 41.1932 28.7614 41.3125C28.9659 41.4299 29.2036 41.4886 29.4744 41.4886C29.6506 41.4886 29.8097 41.464 29.9517 41.4148C30.0956 41.3636 30.2197 41.2879 30.3239 41.1875C30.428 41.0852 30.5085 40.9583 30.5653 40.8068L31.2131 40.9886C31.1449 41.2083 31.0303 41.4015 30.8693 41.5682C30.7083 41.733 30.5095 41.8617 30.2727 41.9545C30.036 42.0455 29.7699 42.0909 29.4744 42.0909ZM34.642 42V36.1818H35.3466V41.375H38.0511V42H34.642ZM40.8807 42.0909C40.4602 42.0909 40.0975 41.9981 39.7926 41.8125C39.4896 41.625 39.2557 41.3636 39.0909 41.0284C38.928 40.6913 38.8466 40.2992 38.8466 39.8523C38.8466 39.4053 38.928 39.0114 39.0909 38.6705C39.2557 38.3277 39.4848 38.0606 39.7784 37.8693C40.0739 37.6761 40.4186 37.5795 40.8125 37.5795C41.0398 37.5795 41.2642 37.6174 41.4858 37.6932C41.7074 37.7689 41.9091 37.892 42.0909 38.0625C42.2727 38.2311 42.4176 38.4545 42.5256 38.733C42.6335 39.0114 42.6875 39.3542 42.6875 39.7614V40.0455H39.3239V39.4659H42.0057C42.0057 39.2197 41.9564 39 41.858 38.8068C41.7614 38.6136 41.6231 38.4612 41.4432 38.3494C41.2652 38.2377 41.0549 38.1818 40.8125 38.1818C40.5455 38.1818 40.3144 38.2481 40.1193 38.3807C39.9261 38.5114 39.7775 38.6818 39.6733 38.892C39.5691 39.1023 39.517 39.3277 39.517 39.5682V39.9545C39.517 40.2841 39.5739 40.5634 39.6875 40.7926C39.803 41.0199 39.9631 41.1932 40.1676 41.3125C40.3722 41.4299 40.6098 41.4886 40.8807 41.4886C41.0568 41.4886 41.2159 41.464 41.358 41.4148C41.5019 41.3636 41.6259 41.2879 41.7301 41.1875C41.8343 41.0852 41.9148 40.9583 41.9716 40.8068L42.6193 40.9886C42.5511 41.2083 42.4366 41.4015 42.2756 41.5682C42.1146 41.733 41.9157 41.8617 41.679 41.9545C41.4422 42.0455 41.1761 42.0909 40.8807 42.0909ZM45.6506 37.6364V38.2045H43.2983V37.6364H45.6506ZM44.0028 42V37.0341C44.0028 36.7841 44.0616 36.5758 44.179 36.4091C44.2964 36.2424 44.4489 36.1174 44.6364 36.0341C44.8239 35.9508 45.0218 35.9091 45.2301 35.9091C45.3949 35.9091 45.5294 35.9223 45.6335 35.9489C45.7377 35.9754 45.8153 36 45.8665 36.0227L45.6733 36.6023C45.6392 36.5909 45.5919 36.5767 45.5312 36.5597C45.4725 36.5426 45.3949 36.5341 45.2983 36.5341C45.0767 36.5341 44.9167 36.59 44.8182 36.7017C44.7216 36.8134 44.6733 36.9773 44.6733 37.1932V42H44.0028ZM48.4879 37.6364V38.2045H46.2266V37.6364H48.4879ZM46.8857 36.5909H47.5561V40.75C47.5561 40.9394 47.5836 41.0814 47.6385 41.1761C47.6953 41.2689 47.7673 41.3314 47.8544 41.3636C47.9434 41.3939 48.0372 41.4091 48.1357 41.4091C48.2095 41.4091 48.2701 41.4053 48.3175 41.3977C48.3648 41.3883 48.4027 41.3807 48.4311 41.375L48.5675 41.9773C48.522 41.9943 48.4586 42.0114 48.3771 42.0284C48.2957 42.0473 48.1925 42.0568 48.0675 42.0568C47.8781 42.0568 47.6925 42.0161 47.5107 41.9347C47.3307 41.8532 47.1811 41.7292 47.0618 41.5625C46.9444 41.3958 46.8857 41.1856 46.8857 40.9318V36.5909Z" fill="white"/>
<path d="M11.7045 77.1818H12.5455L14.5227 82.0114H14.5909L16.5682 77.1818H17.4091V83H16.75V78.5795H16.6932L14.875 83H14.2386L12.4205 78.5795H12.3636V83H11.7045V77.1818ZM20.5036 83.0909C20.1096 83.0909 19.764 82.9972 19.4666 82.8097C19.1712 82.6222 18.9401 82.3598 18.7734 82.0227C18.6087 81.6856 18.5263 81.2917 18.5263 80.8409C18.5263 80.3864 18.6087 79.9896 18.7734 79.6506C18.9401 79.3116 19.1712 79.0483 19.4666 78.8608C19.764 78.6733 20.1096 78.5795 20.5036 78.5795C20.8975 78.5795 21.2422 78.6733 21.5376 78.8608C21.835 79.0483 22.0661 79.3116 22.2308 79.6506C22.3975 79.9896 22.4808 80.3864 22.4808 80.8409C22.4808 81.2917 22.3975 81.6856 22.2308 82.0227C22.0661 82.3598 21.835 82.6222 21.5376 82.8097C21.2422 82.9972 20.8975 83.0909 20.5036 83.0909ZM20.5036 82.4886C20.8028 82.4886 21.049 82.4119 21.2422 82.2585C21.4354 82.1051 21.5784 81.9034 21.6712 81.6534C21.764 81.4034 21.8104 81.1326 21.8104 80.8409C21.8104 80.5492 21.764 80.2775 21.6712 80.0256C21.5784 79.7737 21.4354 79.5701 21.2422 79.4148C21.049 79.2595 20.8028 79.1818 20.5036 79.1818C20.2043 79.1818 19.9581 79.2595 19.7649 79.4148C19.5717 79.5701 19.4287 79.7737 19.3359 80.0256C19.2431 80.2775 19.1967 80.5492 19.1967 80.8409C19.1967 81.1326 19.2431 81.4034 19.3359 81.6534C19.4287 81.9034 19.5717 82.1051 19.7649 82.2585C19.9581 82.4119 20.2043 82.4886 20.5036 82.4886ZM26.9162 78.6364L25.3026 83H24.6207L23.0071 78.6364H23.7344L24.9389 82.1136H24.9844L26.1889 78.6364H26.9162ZM29.4744 83.0909C29.054 83.0909 28.6913 82.9981 28.3864 82.8125C28.0833 82.625 27.8494 82.3636 27.6847 82.0284C27.5218 81.6913 27.4403 81.2992 27.4403 80.8523C27.4403 80.4053 27.5218 80.0114 27.6847 79.6705C27.8494 79.3277 28.0786 79.0606 28.3722 78.8693C28.6676 78.6761 29.0123 78.5795 29.4062 78.5795C29.6335 78.5795 29.858 78.6174 30.0795 78.6932C30.3011 78.7689 30.5028 78.892 30.6847 79.0625C30.8665 79.2311 31.0114 79.4545 31.1193 79.733C31.2273 80.0114 31.2812 80.3542 31.2812 80.7614V81.0455H27.9176V80.4659H30.5994C30.5994 80.2197 30.5502 80 30.4517 79.8068C30.3551 79.6136 30.2169 79.4612 30.0369 79.3494C29.8589 79.2377 29.6487 79.1818 29.4062 79.1818C29.1392 79.1818 28.9081 79.2481 28.7131 79.3807C28.5199 79.5114 28.3712 79.6818 28.267 79.892C28.1629 80.1023 28.1108 80.3277 28.1108 80.5682V80.9545C28.1108 81.2841 28.1676 81.5634 28.2812 81.7926C28.3968 82.0199 28.5568 82.1932 28.7614 82.3125C28.9659 82.4299 29.2036 82.4886 29.4744 82.4886C29.6506 82.4886 29.8097 82.464 29.9517 82.4148C30.0956 82.3636 30.2197 82.2879 30.3239 82.1875C30.428 82.0852 30.5085 81.9583 30.5653 81.8068L31.2131 81.9886C31.1449 82.2083 31.0303 82.4015 30.8693 82.5682C30.7083 82.733 30.5095 82.8617 30.2727 82.9545C30.036 83.0455 29.7699 83.0909 29.4744 83.0909ZM34.642 83V77.1818H35.3466V82.375H38.0511V83H34.642ZM40.8807 83.0909C40.4602 83.0909 40.0975 82.9981 39.7926 82.8125C39.4896 82.625 39.2557 82.3636 39.0909 82.0284C38.928 81.6913 38.8466 81.2992 38.8466 80.8523C38.8466 80.4053 38.928 80.0114 39.0909 79.6705C39.2557 79.3277 39.4848 79.0606 39.7784 78.8693C40.0739 78.6761 40.4186 78.5795 40.8125 78.5795C41.0398 78.5795 41.2642 78.6174 41.4858 78.6932C41.7074 78.7689 41.9091 78.892 42.0909 79.0625C42.2727 79.2311 42.4176 79.4545 42.5256 79.733C42.6335 80.0114 42.6875 80.3542 42.6875 80.7614V81.0455H39.3239V80.4659H42.0057C42.0057 80.2197 41.9564 80 41.858 79.8068C41.7614 79.6136 41.6231 79.4612 41.4432 79.3494C41.2652 79.2377 41.0549 79.1818 40.8125 79.1818C40.5455 79.1818 40.3144 79.2481 40.1193 79.3807C39.9261 79.5114 39.7775 79.6818 39.6733 79.892C39.5691 80.1023 39.517 80.3277 39.517 80.5682V80.9545C39.517 81.2841 39.5739 81.5634 39.6875 81.7926C39.803 82.0199 39.9631 82.1932 40.1676 82.3125C40.3722 82.4299 40.6098 82.4886 40.8807 82.4886C41.0568 82.4886 41.2159 82.464 41.358 82.4148C41.5019 82.3636 41.6259 82.2879 41.7301 82.1875C41.8343 82.0852 41.9148 81.9583 41.9716 81.8068L42.6193 81.9886C42.5511 82.2083 42.4366 82.4015 42.2756 82.5682C42.1146 82.733 41.9157 82.8617 41.679 82.9545C41.4422 83.0455 41.1761 83.0909 40.8807 83.0909ZM45.6506 78.6364V79.2045H43.2983V78.6364H45.6506ZM44.0028 83V78.0341C44.0028 77.7841 44.0616 77.5758 44.179 77.4091C44.2964 77.2424 44.4489 77.1174 44.6364 77.0341C44.8239 76.9508 45.0218 76.9091 45.2301 76.9091C45.3949 76.9091 45.5294 76.9223 45.6335 76.9489C45.7377 76.9754 45.8153 77 45.8665 77.0227L45.6733 77.6023C45.6392 77.5909 45.5919 77.5767 45.5312 77.5597C45.4725 77.5426 45.3949 77.5341 45.2983 77.5341C45.0767 77.5341 44.9167 77.59 44.8182 77.7017C44.7216 77.8134 44.6733 77.9773 44.6733 78.1932V83H44.0028ZM48.4879 78.6364V79.2045H46.2266V78.6364H48.4879ZM46.8857 77.5909H47.5561V81.75C47.5561 81.9394 47.5836 82.0814 47.6385 82.1761C47.6953 82.2689 47.7673 82.3314 47.8544 82.3636C47.9434 82.3939 48.0372 82.4091 48.1357 82.4091C48.2095 82.4091 48.2701 82.4053 48.3175 82.3977C48.3648 82.3883 48.4027 82.3807 48.4311 82.375L48.5675 82.9773C48.522 82.9943 48.4586 83.0114 48.3771 83.0284C48.2957 83.0473 48.1925 83.0568 48.0675 83.0568C47.8781 83.0568 47.6925 83.0161 47.5107 82.9347C47.3307 82.8532 47.1811 82.7292 47.0618 82.5625C46.9444 82.3958 46.8857 82.1856 46.8857 81.9318V77.5909Z" fill="white"/>
<path d="M159.932 135.182H160.636V139.341C160.636 139.712 160.568 140.027 160.432 140.287C160.295 140.546 160.103 140.743 159.855 140.878C159.607 141.012 159.314 141.08 158.977 141.08C158.659 141.08 158.376 141.022 158.128 140.906C157.88 140.789 157.685 140.622 157.543 140.406C157.401 140.19 157.33 139.934 157.33 139.636H158.023C158.023 139.801 158.063 139.945 158.145 140.068C158.228 140.189 158.342 140.284 158.486 140.352C158.63 140.42 158.794 140.455 158.977 140.455C159.18 140.455 159.352 140.412 159.494 140.327C159.636 140.241 159.744 140.116 159.818 139.952C159.894 139.785 159.932 139.581 159.932 139.341V135.182ZM164.707 139.216V136.636H165.378V141H164.707V140.261H164.662C164.56 140.483 164.401 140.671 164.185 140.827C163.969 140.98 163.696 141.057 163.366 141.057C163.094 141.057 162.851 140.997 162.639 140.878C162.427 140.757 162.26 140.575 162.139 140.332C162.018 140.088 161.957 139.78 161.957 139.409V136.636H162.628V139.364C162.628 139.682 162.717 139.936 162.895 140.125C163.075 140.314 163.304 140.409 163.582 140.409C163.749 140.409 163.919 140.366 164.091 140.281C164.265 140.196 164.411 140.065 164.528 139.889C164.648 139.713 164.707 139.489 164.707 139.216ZM166.606 141V136.636H167.254V137.318H167.31C167.401 137.085 167.548 136.904 167.751 136.776C167.953 136.645 168.197 136.58 168.481 136.58C168.769 136.58 169.008 136.645 169.2 136.776C169.393 136.904 169.543 137.085 169.651 137.318H169.697C169.808 137.093 169.976 136.914 170.2 136.781C170.423 136.647 170.691 136.58 171.004 136.58C171.394 136.58 171.713 136.702 171.961 136.946C172.209 137.188 172.333 137.566 172.333 138.08V141H171.663V138.08C171.663 137.758 171.575 137.527 171.398 137.389C171.222 137.251 171.015 137.182 170.776 137.182C170.469 137.182 170.232 137.275 170.063 137.46C169.895 137.644 169.81 137.877 169.81 138.159V141H169.129V138.011C169.129 137.763 169.048 137.563 168.887 137.412C168.726 137.259 168.519 137.182 168.265 137.182C168.091 137.182 167.928 137.228 167.776 137.321C167.627 137.414 167.505 137.543 167.413 137.707C167.322 137.87 167.276 138.059 167.276 138.273V141H166.606ZM173.559 142.636V136.636H174.207V137.33H174.286C174.335 137.254 174.404 137.157 174.491 137.04C174.58 136.92 174.707 136.814 174.871 136.722C175.038 136.627 175.263 136.58 175.548 136.58C175.915 136.58 176.239 136.671 176.519 136.855C176.799 137.039 177.018 137.299 177.175 137.636C177.333 137.973 177.411 138.371 177.411 138.83C177.411 139.292 177.333 139.692 177.175 140.031C177.018 140.368 176.8 140.63 176.522 140.815C176.244 140.999 175.923 141.091 175.559 141.091C175.279 141.091 175.054 141.045 174.886 140.952C174.717 140.857 174.587 140.75 174.496 140.631C174.406 140.509 174.335 140.409 174.286 140.33H174.229V142.636H173.559ZM174.218 138.818C174.218 139.148 174.266 139.438 174.363 139.69C174.46 139.94 174.601 140.136 174.786 140.278C174.972 140.419 175.199 140.489 175.468 140.489C175.748 140.489 175.982 140.415 176.17 140.267C176.359 140.117 176.501 139.917 176.596 139.665C176.692 139.411 176.741 139.129 176.741 138.818C176.741 138.511 176.693 138.235 176.599 137.989C176.506 137.741 176.365 137.545 176.175 137.401C175.988 137.255 175.752 137.182 175.468 137.182C175.195 137.182 174.966 137.251 174.781 137.389C174.595 137.526 174.455 137.717 174.36 137.963C174.265 138.207 174.218 138.492 174.218 138.818Z" fill="white"/>
<path d="M93.6818 14C93.6193 13.8087 93.5369 13.6373 93.4347 13.4858C93.3343 13.3324 93.214 13.2017 93.0739 13.0938C92.9356 12.9858 92.7784 12.9034 92.6023 12.8466C92.4261 12.7898 92.233 12.7614 92.0227 12.7614C91.678 12.7614 91.3646 12.8504 91.0824 13.0284C90.8002 13.2064 90.5758 13.4688 90.4091 13.8153C90.2424 14.1619 90.1591 14.5871 90.1591 15.0909C90.1591 15.5947 90.2434 16.0199 90.4119 16.3665C90.5805 16.7131 90.8087 16.9754 91.0966 17.1534C91.3845 17.3314 91.7083 17.4205 92.0682 17.4205C92.4015 17.4205 92.6951 17.3494 92.9489 17.2074C93.2045 17.0634 93.4034 16.8608 93.5455 16.5994C93.6894 16.3362 93.7614 16.0265 93.7614 15.6705L93.9773 15.7159H92.2273V15.0909H94.4432V15.7159C94.4432 16.1951 94.3409 16.6117 94.1364 16.9659C93.9337 17.3201 93.6534 17.5947 93.2955 17.7898C92.9394 17.983 92.5303 18.0795 92.0682 18.0795C91.553 18.0795 91.1004 17.9583 90.7102 17.7159C90.322 17.4735 90.0189 17.1288 89.8011 16.6818C89.5852 16.2348 89.4773 15.7045 89.4773 15.0909C89.4773 14.6307 89.5388 14.2169 89.6619 13.8494C89.7869 13.4801 89.9631 13.1657 90.1903 12.9062C90.4176 12.6468 90.6866 12.4479 90.9972 12.3097C91.3078 12.1714 91.6496 12.1023 92.0227 12.1023C92.3295 12.1023 92.6155 12.1487 92.8807 12.2415C93.1477 12.3324 93.3854 12.4621 93.5938 12.6307C93.804 12.7973 93.9792 12.9972 94.1193 13.2301C94.2595 13.4612 94.3561 13.7178 94.4091 14H93.6818ZM98.3089 16.2159V13.6364H98.9794V18H98.3089V17.2614H98.2635C98.1612 17.483 98.0021 17.6714 97.7862 17.8267C97.5703 17.9801 97.2976 18.0568 96.968 18.0568C96.6953 18.0568 96.4529 17.9972 96.2408 17.8778C96.0286 17.7566 95.862 17.5748 95.7408 17.3324C95.6196 17.0881 95.5589 16.7803 95.5589 16.4091V13.6364H96.2294V16.3636C96.2294 16.6818 96.3184 16.9356 96.4964 17.125C96.6764 17.3144 96.9055 17.4091 97.1839 17.4091C97.3506 17.4091 97.5201 17.3665 97.6925 17.2812C97.8667 17.196 98.0125 17.0653 98.13 16.8892C98.2493 16.7131 98.3089 16.4886 98.3089 16.2159ZM101.491 18.1023C101.215 18.1023 100.964 18.0502 100.739 17.946C100.513 17.84 100.334 17.6875 100.202 17.4886C100.069 17.2879 100.003 17.0455 100.003 16.7614C100.003 16.5114 100.052 16.3087 100.151 16.1534C100.249 15.9962 100.381 15.8731 100.545 15.7841C100.71 15.6951 100.892 15.6288 101.091 15.5852C101.292 15.5398 101.493 15.5038 101.696 15.4773C101.961 15.4432 102.176 15.4176 102.341 15.4006C102.508 15.3816 102.629 15.3504 102.705 15.3068C102.782 15.2633 102.821 15.1875 102.821 15.0795V15.0568C102.821 14.7765 102.744 14.5587 102.591 14.4034C102.439 14.2481 102.209 14.1705 101.901 14.1705C101.58 14.1705 101.33 14.2405 101.148 14.3807C100.966 14.5208 100.838 14.6705 100.764 14.8295L100.128 14.6023C100.241 14.3371 100.393 14.1307 100.582 13.983C100.774 13.8333 100.982 13.7292 101.207 13.6705C101.435 13.6098 101.658 13.5795 101.878 13.5795C102.018 13.5795 102.179 13.5966 102.361 13.6307C102.545 13.6629 102.722 13.7301 102.892 13.8324C103.064 13.9347 103.207 14.089 103.321 14.2955C103.435 14.5019 103.491 14.7784 103.491 15.125V18H102.821V17.4091H102.787C102.741 17.5038 102.666 17.6051 102.56 17.7131C102.454 17.821 102.313 17.9129 102.136 17.9886C101.96 18.0644 101.745 18.1023 101.491 18.1023ZM101.594 17.5C101.859 17.5 102.082 17.4479 102.264 17.3438C102.448 17.2396 102.586 17.1051 102.679 16.9403C102.774 16.7756 102.821 16.6023 102.821 16.4205V15.8068C102.793 15.8409 102.73 15.8722 102.634 15.9006C102.539 15.9271 102.429 15.9508 102.304 15.9716C102.181 15.9905 102.061 16.0076 101.943 16.0227C101.828 16.036 101.734 16.0473 101.662 16.0568C101.488 16.0795 101.325 16.1165 101.173 16.1676C101.024 16.2169 100.902 16.2917 100.81 16.392C100.719 16.4905 100.673 16.625 100.673 16.7955C100.673 17.0284 100.759 17.2045 100.932 17.3239C101.106 17.4413 101.327 17.5 101.594 17.5ZM104.715 18V13.6364H105.363V14.2955H105.408C105.488 14.0795 105.632 13.9044 105.84 13.7699C106.049 13.6354 106.283 13.5682 106.545 13.5682C106.594 13.5682 106.656 13.5691 106.729 13.571C106.803 13.5729 106.859 13.5758 106.897 13.5795V14.2614C106.874 14.2557 106.822 14.2472 106.741 14.2358C106.661 14.2225 106.577 14.2159 106.488 14.2159C106.276 14.2159 106.086 14.2604 105.92 14.3494C105.755 14.4366 105.624 14.5578 105.528 14.7131C105.433 14.8665 105.386 15.0417 105.386 15.2386V18H104.715ZM109.207 18.0909C108.843 18.0909 108.522 17.9991 108.244 17.8153C107.965 17.6297 107.747 17.3684 107.59 17.0312C107.433 16.6922 107.354 16.2917 107.354 15.8295C107.354 15.3712 107.433 14.9735 107.59 14.6364C107.747 14.2992 107.966 14.0388 108.246 13.8551C108.527 13.6714 108.851 13.5795 109.218 13.5795C109.502 13.5795 109.727 13.6269 109.891 13.7216C110.058 13.8144 110.185 13.9205 110.272 14.0398C110.361 14.1572 110.43 14.2538 110.479 14.3295H110.536V12.1818H111.207V18H110.559V17.3295H110.479C110.43 17.4091 110.36 17.5095 110.269 17.6307C110.178 17.75 110.049 17.857 109.88 17.9517C109.711 18.0445 109.487 18.0909 109.207 18.0909ZM109.298 17.4886C109.567 17.4886 109.794 17.4186 109.979 17.2784C110.165 17.1364 110.306 16.9403 110.403 16.6903C110.499 16.4384 110.548 16.1477 110.548 15.8182C110.548 15.4924 110.5 15.2074 110.406 14.9631C110.311 14.7169 110.171 14.5256 109.985 14.3892C109.799 14.2509 109.57 14.1818 109.298 14.1818C109.013 14.1818 108.777 14.2547 108.587 14.4006C108.4 14.5445 108.259 14.7405 108.164 14.9886C108.071 15.2348 108.025 15.5114 108.025 15.8182C108.025 16.1288 108.072 16.411 108.167 16.6648C108.263 16.9167 108.406 17.1174 108.593 17.267C108.782 17.4148 109.017 17.4886 109.298 17.4886Z" fill="white"/>
<path d="M157.705 35.1818H158.545L160.523 40.0114H160.591L162.568 35.1818H163.409V41H162.75V36.5795H162.693L160.875 41H160.239L158.42 36.5795H158.364V41H157.705V35.1818ZM166.504 41.0909C166.11 41.0909 165.764 40.9972 165.467 40.8097C165.171 40.6222 164.94 40.3598 164.773 40.0227C164.609 39.6856 164.526 39.2917 164.526 38.8409C164.526 38.3864 164.609 37.9896 164.773 37.6506C164.94 37.3116 165.171 37.0483 165.467 36.8608C165.764 36.6733 166.11 36.5795 166.504 36.5795C166.897 36.5795 167.242 36.6733 167.538 36.8608C167.835 37.0483 168.066 37.3116 168.231 37.6506C168.397 37.9896 168.481 38.3864 168.481 38.8409C168.481 39.2917 168.397 39.6856 168.231 40.0227C168.066 40.3598 167.835 40.6222 167.538 40.8097C167.242 40.9972 166.897 41.0909 166.504 41.0909ZM166.504 40.4886C166.803 40.4886 167.049 40.4119 167.242 40.2585C167.435 40.1051 167.578 39.9034 167.671 39.6534C167.764 39.4034 167.81 39.1326 167.81 38.8409C167.81 38.5492 167.764 38.2775 167.671 38.0256C167.578 37.7737 167.435 37.5701 167.242 37.4148C167.049 37.2595 166.803 37.1818 166.504 37.1818C166.204 37.1818 165.958 37.2595 165.765 37.4148C165.572 37.5701 165.429 37.7737 165.336 38.0256C165.243 38.2775 165.197 38.5492 165.197 38.8409C165.197 39.1326 165.243 39.4034 165.336 39.6534C165.429 39.9034 165.572 40.1051 165.765 40.2585C165.958 40.4119 166.204 40.4886 166.504 40.4886ZM172.916 36.6364L171.303 41H170.621L169.007 36.6364H169.734L170.939 40.1136H170.984L172.189 36.6364H172.916ZM175.474 41.0909C175.054 41.0909 174.691 40.9981 174.386 40.8125C174.083 40.625 173.849 40.3636 173.685 40.0284C173.522 39.6913 173.44 39.2992 173.44 38.8523C173.44 38.4053 173.522 38.0114 173.685 37.6705C173.849 37.3277 174.079 37.0606 174.372 36.8693C174.668 36.6761 175.012 36.5795 175.406 36.5795C175.634 36.5795 175.858 36.6174 176.08 36.6932C176.301 36.7689 176.503 36.892 176.685 37.0625C176.866 37.2311 177.011 37.4545 177.119 37.733C177.227 38.0114 177.281 38.3542 177.281 38.7614V39.0455H173.918V38.4659H176.599C176.599 38.2197 176.55 38 176.452 37.8068C176.355 37.6136 176.217 37.4612 176.037 37.3494C175.859 37.2377 175.649 37.1818 175.406 37.1818C175.139 37.1818 174.908 37.2481 174.713 37.3807C174.52 37.5114 174.371 37.6818 174.267 37.892C174.163 38.1023 174.111 38.3277 174.111 38.5682V38.9545C174.111 39.2841 174.168 39.5634 174.281 39.7926C174.397 40.0199 174.557 40.1932 174.761 40.3125C174.966 40.4299 175.204 40.4886 175.474 40.4886C175.651 40.4886 175.81 40.464 175.952 40.4148C176.096 40.3636 176.22 40.2879 176.324 40.1875C176.428 40.0852 176.509 39.9583 176.565 39.8068L177.213 39.9886C177.145 40.2083 177.03 40.4015 176.869 40.5682C176.708 40.733 176.509 40.8617 176.273 40.9545C176.036 41.0455 175.77 41.0909 175.474 41.0909ZM180.642 41V35.1818H182.608C183.063 35.1818 183.436 35.2595 183.727 35.4148C184.019 35.5682 184.235 35.7794 184.375 36.0483C184.515 36.3172 184.585 36.6231 184.585 36.9659C184.585 37.3087 184.515 37.6127 184.375 37.8778C184.235 38.143 184.02 38.3513 183.73 38.5028C183.44 38.6525 183.07 38.7273 182.619 38.7273H181.028V38.0909H182.597C182.907 38.0909 183.157 38.0455 183.347 37.9545C183.538 37.8636 183.676 37.7348 183.761 37.5682C183.848 37.3996 183.892 37.1989 183.892 36.9659C183.892 36.733 183.848 36.5294 183.761 36.3551C183.674 36.1809 183.535 36.0464 183.344 35.9517C183.152 35.8551 182.9 35.8068 182.585 35.8068H181.347V41H180.642ZM183.381 38.3864L184.812 41H183.994L182.585 38.3864H183.381ZM185.668 41V36.6364H186.339V41H185.668ZM186.009 35.9091C185.879 35.9091 185.766 35.8646 185.671 35.7756C185.578 35.6866 185.532 35.5795 185.532 35.4545C185.532 35.3295 185.578 35.2225 185.671 35.1335C185.766 35.0445 185.879 35 186.009 35C186.14 35 186.252 35.0445 186.344 35.1335C186.439 35.2225 186.487 35.3295 186.487 35.4545C186.487 35.5795 186.439 35.6866 186.344 35.7756C186.252 35.8646 186.14 35.9091 186.009 35.9091ZM189.328 42.7273C189.004 42.7273 188.726 42.6856 188.493 42.6023C188.26 42.5208 188.066 42.4129 187.911 42.2784C187.757 42.1458 187.635 42.0038 187.544 41.8523L188.078 41.4773C188.139 41.5568 188.215 41.6477 188.308 41.75C188.401 41.8542 188.528 41.9441 188.689 42.0199C188.852 42.0975 189.065 42.1364 189.328 42.1364C189.68 42.1364 189.971 42.0511 190.2 41.8807C190.429 41.7102 190.544 41.4432 190.544 41.0795V40.1932H190.487C190.438 40.2727 190.368 40.3712 190.277 40.4886C190.188 40.6042 190.059 40.7074 189.891 40.7983C189.724 40.8873 189.499 40.9318 189.214 40.9318C188.862 40.9318 188.546 40.8485 188.266 40.6818C187.987 40.5152 187.767 40.2727 187.604 39.9545C187.443 39.6364 187.362 39.25 187.362 38.7955C187.362 38.3485 187.441 37.9593 187.598 37.6278C187.755 37.2945 187.974 37.0369 188.254 36.8551C188.535 36.6714 188.858 36.5795 189.226 36.5795C189.51 36.5795 189.735 36.6269 189.902 36.7216C190.071 36.8144 190.199 36.9205 190.288 37.0398C190.379 37.1572 190.449 37.2538 190.499 37.3295H190.567V36.6364H191.214V41.125C191.214 41.5 191.129 41.8049 190.959 42.0398C190.79 42.2765 190.563 42.4498 190.277 42.5597C189.993 42.6714 189.677 42.7273 189.328 42.7273ZM189.305 40.3295C189.574 40.3295 189.802 40.268 189.987 40.1449C190.173 40.0218 190.314 39.8447 190.411 39.6136C190.507 39.3826 190.555 39.1061 190.555 38.7841C190.555 38.4697 190.508 38.1922 190.413 37.9517C190.319 37.7112 190.179 37.5227 189.993 37.3864C189.807 37.25 189.578 37.1818 189.305 37.1818C189.021 37.1818 188.785 37.2538 188.595 37.3977C188.408 37.5417 188.267 37.7348 188.172 37.9773C188.079 38.2197 188.033 38.4886 188.033 38.7841C188.033 39.0871 188.08 39.3551 188.175 39.5881C188.271 39.8191 188.413 40.0009 188.601 40.1335C188.79 40.2642 189.025 40.3295 189.305 40.3295ZM193.112 38.375V41H192.442V35.1818H193.112V37.3182H193.169C193.271 37.0928 193.425 36.9138 193.629 36.7812C193.836 36.6468 194.11 36.5795 194.453 36.5795C194.75 36.5795 195.011 36.6392 195.234 36.7585C195.458 36.8759 195.631 37.0568 195.754 37.3011C195.879 37.5436 195.942 37.8523 195.942 38.2273V41H195.271V38.2727C195.271 37.9261 195.181 37.6581 195.001 37.4688C194.823 37.2775 194.576 37.1818 194.26 37.1818C194.04 37.1818 193.843 37.2282 193.669 37.321C193.497 37.4138 193.36 37.5492 193.26 37.7273C193.161 37.9053 193.112 38.1212 193.112 38.375ZM199.066 36.6364V37.2045H196.805V36.6364H199.066ZM197.464 35.5909H198.134V39.75C198.134 39.9394 198.162 40.0814 198.217 40.1761C198.273 40.2689 198.345 40.3314 198.433 40.3636C198.522 40.3939 198.615 40.4091 198.714 40.4091C198.788 40.4091 198.848 40.4053 198.896 40.3977C198.943 40.3883 198.981 40.3807 199.009 40.375L199.146 40.9773C199.1 40.9943 199.037 41.0114 198.955 41.0284C198.874 41.0473 198.771 41.0568 198.646 41.0568C198.456 41.0568 198.271 41.0161 198.089 40.9347C197.909 40.8532 197.759 40.7292 197.64 40.5625C197.522 40.3958 197.464 40.1856 197.464 39.9318V35.5909Z" fill="white"/>
<path d="M68.8864 136.636C68.8523 136.348 68.714 136.125 68.4716 135.966C68.2292 135.807 67.9318 135.727 67.5795 135.727C67.322 135.727 67.0966 135.769 66.9034 135.852C66.7121 135.936 66.5625 136.05 66.4545 136.196C66.3485 136.342 66.2955 136.508 66.2955 136.693C66.2955 136.848 66.3324 136.982 66.4062 137.094C66.482 137.204 66.5786 137.295 66.696 137.369C66.8134 137.441 66.9366 137.501 67.0653 137.548C67.1941 137.594 67.3125 137.631 67.4205 137.659L68.0114 137.818C68.1629 137.858 68.3314 137.913 68.517 137.983C68.7045 138.053 68.8835 138.149 69.054 138.27C69.2263 138.389 69.3684 138.543 69.4801 138.73C69.5919 138.918 69.6477 139.148 69.6477 139.42C69.6477 139.735 69.5653 140.019 69.4006 140.273C69.2377 140.527 68.9991 140.728 68.6847 140.878C68.3722 141.027 67.9924 141.102 67.5455 141.102C67.1288 141.102 66.768 141.035 66.4631 140.901C66.16 140.766 65.9214 140.579 65.7472 140.338C65.5748 140.098 65.4773 139.818 65.4545 139.5H66.1818C66.2008 139.72 66.2746 139.902 66.4034 140.045C66.5341 140.187 66.6989 140.294 66.8977 140.364C67.0985 140.432 67.3144 140.466 67.5455 140.466C67.8144 140.466 68.0559 140.422 68.2699 140.335C68.4839 140.246 68.6534 140.123 68.7784 139.966C68.9034 139.807 68.9659 139.621 68.9659 139.409C68.9659 139.216 68.9119 139.059 68.804 138.938C68.696 138.816 68.554 138.718 68.3778 138.642C68.2017 138.566 68.0114 138.5 67.8068 138.443L67.0909 138.239C66.6364 138.108 66.2765 137.921 66.0114 137.679C65.7462 137.437 65.6136 137.119 65.6136 136.727C65.6136 136.402 65.7017 136.117 65.8778 135.875C66.0559 135.631 66.2945 135.441 66.5938 135.307C66.8949 135.17 67.2311 135.102 67.6023 135.102C67.9773 135.102 68.3106 135.17 68.6023 135.304C68.8939 135.437 69.125 135.618 69.2955 135.849C69.4678 136.08 69.5587 136.343 69.5682 136.636H68.8864ZM70.7152 142.636V136.636H71.3629V137.33H71.4425C71.4917 137.254 71.5599 137.157 71.647 137.04C71.736 136.92 71.8629 136.814 72.0277 136.722C72.1944 136.627 72.4197 136.58 72.7038 136.58C73.0713 136.58 73.3951 136.671 73.6754 136.855C73.9557 137.039 74.1745 137.299 74.3317 137.636C74.4889 137.973 74.5675 138.371 74.5675 138.83C74.5675 139.292 74.4889 139.692 74.3317 140.031C74.1745 140.368 73.9567 140.63 73.6783 140.815C73.3999 140.999 73.0788 141.091 72.7152 141.091C72.4349 141.091 72.2105 141.045 72.0419 140.952C71.8733 140.857 71.7436 140.75 71.6527 140.631C71.5618 140.509 71.4917 140.409 71.4425 140.33H71.3857V142.636H70.7152ZM71.3743 138.818C71.3743 139.148 71.4226 139.438 71.5192 139.69C71.6158 139.94 71.7569 140.136 71.9425 140.278C72.1281 140.419 72.3554 140.489 72.6243 140.489C72.9046 140.489 73.1385 140.415 73.326 140.267C73.5154 140.117 73.6574 139.917 73.7521 139.665C73.8487 139.411 73.897 139.129 73.897 138.818C73.897 138.511 73.8497 138.235 73.755 137.989C73.6622 137.741 73.5211 137.545 73.3317 137.401C73.1442 137.255 72.9084 137.182 72.6243 137.182C72.3516 137.182 72.1224 137.251 71.9368 137.389C71.7512 137.526 71.611 137.717 71.5163 137.963C71.4216 138.207 71.3743 138.492 71.3743 138.818ZM76.8743 141.102C76.5978 141.102 76.3468 141.05 76.1214 140.946C75.8961 140.84 75.7171 140.688 75.5845 140.489C75.4519 140.288 75.3857 140.045 75.3857 139.761C75.3857 139.511 75.4349 139.309 75.5334 139.153C75.6319 138.996 75.7635 138.873 75.9283 138.784C76.093 138.695 76.2749 138.629 76.4737 138.585C76.6745 138.54 76.8762 138.504 77.0788 138.477C77.344 138.443 77.5589 138.418 77.7237 138.401C77.8904 138.382 78.0116 138.35 78.0874 138.307C78.165 138.263 78.2038 138.187 78.2038 138.08V138.057C78.2038 137.777 78.1271 137.559 77.9737 137.403C77.8222 137.248 77.5921 137.17 77.2834 137.17C76.9633 137.17 76.7124 137.241 76.5305 137.381C76.3487 137.521 76.2209 137.67 76.147 137.83L75.5107 137.602C75.6243 137.337 75.7758 137.131 75.9652 136.983C76.1565 136.833 76.3648 136.729 76.5902 136.67C76.8175 136.61 77.041 136.58 77.2607 136.58C77.4008 136.58 77.5618 136.597 77.7436 136.631C77.9273 136.663 78.1044 136.73 78.2749 136.832C78.4472 136.935 78.5902 137.089 78.7038 137.295C78.8175 137.502 78.8743 137.778 78.8743 138.125V141H78.2038V140.409H78.1697C78.1243 140.504 78.0485 140.605 77.9425 140.713C77.8364 140.821 77.6953 140.913 77.5192 140.989C77.343 141.064 77.1281 141.102 76.8743 141.102ZM76.9766 140.5C77.2417 140.5 77.4652 140.448 77.647 140.344C77.8307 140.24 77.969 140.105 78.0618 139.94C78.1565 139.776 78.2038 139.602 78.2038 139.42V138.807C78.1754 138.841 78.1129 138.872 78.0163 138.901C77.9216 138.927 77.8118 138.951 77.6868 138.972C77.5637 138.991 77.4434 139.008 77.326 139.023C77.2105 139.036 77.1167 139.047 77.0447 139.057C76.8705 139.08 76.7076 139.116 76.5561 139.168C76.4065 139.217 76.2853 139.292 76.1925 139.392C76.1016 139.491 76.0561 139.625 76.0561 139.795C76.0561 140.028 76.1423 140.205 76.3146 140.324C76.4889 140.441 76.7095 140.5 76.9766 140.5ZM81.8707 141.091C81.4616 141.091 81.1094 140.994 80.8139 140.801C80.5185 140.608 80.2912 140.342 80.1321 140.003C79.973 139.664 79.8935 139.277 79.8935 138.841C79.8935 138.398 79.9749 138.007 80.1378 137.668C80.3026 137.327 80.5317 137.061 80.8253 136.869C81.1207 136.676 81.4654 136.58 81.8594 136.58C82.1662 136.58 82.4427 136.636 82.6889 136.75C82.9351 136.864 83.1368 137.023 83.294 137.227C83.4512 137.432 83.5488 137.67 83.5866 137.943H82.9162C82.8651 137.744 82.7514 137.568 82.5753 137.415C82.401 137.259 82.1662 137.182 81.8707 137.182C81.6094 137.182 81.3802 137.25 81.1832 137.386C80.9882 137.521 80.8357 137.711 80.7259 137.957C80.6179 138.202 80.5639 138.489 80.5639 138.818C80.5639 139.155 80.617 139.449 80.723 139.699C80.831 139.949 80.9825 140.143 81.1776 140.281C81.3745 140.42 81.6056 140.489 81.8707 140.489C82.045 140.489 82.2031 140.458 82.3452 140.398C82.4872 140.337 82.6075 140.25 82.706 140.136C82.8045 140.023 82.8745 139.886 82.9162 139.727H83.5866C83.5488 139.985 83.455 140.217 83.3054 140.423C83.1577 140.628 82.9616 140.791 82.7173 140.912C82.4749 141.031 82.1927 141.091 81.8707 141.091ZM86.3963 141.091C85.9759 141.091 85.6132 140.998 85.3082 140.812C85.0052 140.625 84.7713 140.364 84.6065 140.028C84.4437 139.691 84.3622 139.299 84.3622 138.852C84.3622 138.405 84.4437 138.011 84.6065 137.67C84.7713 137.328 85.0005 137.061 85.294 136.869C85.5895 136.676 85.9342 136.58 86.3281 136.58C86.5554 136.58 86.7798 136.617 87.0014 136.693C87.223 136.769 87.4247 136.892 87.6065 137.062C87.7884 137.231 87.9332 137.455 88.0412 137.733C88.1491 138.011 88.2031 138.354 88.2031 138.761V139.045H84.8395V138.466H87.5213C87.5213 138.22 87.4721 138 87.3736 137.807C87.277 137.614 87.1387 137.461 86.9588 137.349C86.7808 137.238 86.5705 137.182 86.3281 137.182C86.0611 137.182 85.83 137.248 85.6349 137.381C85.4418 137.511 85.2931 137.682 85.1889 137.892C85.0848 138.102 85.0327 138.328 85.0327 138.568V138.955C85.0327 139.284 85.0895 139.563 85.2031 139.793C85.3187 140.02 85.4787 140.193 85.6832 140.312C85.8878 140.43 86.1255 140.489 86.3963 140.489C86.5724 140.489 86.7315 140.464 86.8736 140.415C87.0175 140.364 87.1416 140.288 87.2457 140.188C87.3499 140.085 87.4304 139.958 87.4872 139.807L88.1349 139.989C88.0668 140.208 87.9522 140.402 87.7912 140.568C87.6302 140.733 87.4313 140.862 87.1946 140.955C86.9579 141.045 86.6918 141.091 86.3963 141.091Z" fill="white"/>
<path d="M268.943 66H268.205L270.341 60.1818H271.068L273.205 66H272.466L270.727 61.1023H270.682L268.943 66ZM269.216 63.7273H272.193V64.3523H269.216V63.7273ZM275.644 61.6364V62.2045H273.383V61.6364H275.644ZM274.042 60.5909H274.712V64.75C274.712 64.9394 274.74 65.0814 274.795 65.1761C274.852 65.2689 274.924 65.3314 275.011 65.3636C275.1 65.3939 275.193 65.4091 275.292 65.4091C275.366 65.4091 275.426 65.4053 275.474 65.3977C275.521 65.3883 275.559 65.3807 275.587 65.375L275.724 65.9773C275.678 65.9943 275.615 66.0114 275.533 66.0284C275.452 66.0473 275.349 66.0568 275.224 66.0568C275.034 66.0568 274.849 66.0161 274.667 65.9347C274.487 65.8532 274.337 65.7292 274.218 65.5625C274.101 65.3958 274.042 65.1856 274.042 64.9318V60.5909ZM278.55 61.6364V62.2045H276.289V61.6364H278.55ZM276.948 60.5909H277.619V64.75C277.619 64.9394 277.646 65.0814 277.701 65.1761C277.758 65.2689 277.83 65.3314 277.917 65.3636C278.006 65.3939 278.1 65.4091 278.198 65.4091C278.272 65.4091 278.333 65.4053 278.38 65.3977C278.427 65.3883 278.465 65.3807 278.494 65.375L278.63 65.9773C278.585 65.9943 278.521 66.0114 278.44 66.0284C278.358 66.0473 278.255 66.0568 278.13 66.0568C277.941 66.0568 277.755 66.0161 277.573 65.9347C277.393 65.8532 277.244 65.7292 277.124 65.5625C277.007 65.3958 276.948 65.1856 276.948 64.9318V60.5909ZM280.843 66.1023C280.567 66.1023 280.316 66.0502 280.09 65.946C279.865 65.84 279.686 65.6875 279.553 65.4886C279.421 65.2879 279.354 65.0455 279.354 64.7614C279.354 64.5114 279.404 64.3087 279.502 64.1534C279.601 63.9962 279.732 63.8731 279.897 63.7841C280.062 63.6951 280.244 63.6288 280.442 63.5852C280.643 63.5398 280.845 63.5038 281.048 63.4773C281.313 63.4432 281.528 63.4176 281.692 63.4006C281.859 63.3816 281.98 63.3504 282.056 63.3068C282.134 63.2633 282.173 63.1875 282.173 63.0795V63.0568C282.173 62.7765 282.096 62.5587 281.942 62.4034C281.791 62.2481 281.561 62.1705 281.252 62.1705C280.932 62.1705 280.681 62.2405 280.499 62.3807C280.317 62.5208 280.19 62.6705 280.116 62.8295L279.479 62.6023C279.593 62.3371 279.745 62.1307 279.934 61.983C280.125 61.8333 280.334 61.7292 280.559 61.6705C280.786 61.6098 281.01 61.5795 281.229 61.5795C281.37 61.5795 281.531 61.5966 281.712 61.6307C281.896 61.6629 282.073 61.7301 282.244 61.8324C282.416 61.9347 282.559 62.089 282.673 62.2955C282.786 62.5019 282.843 62.7784 282.843 63.125V66H282.173V65.4091H282.138C282.093 65.5038 282.017 65.6051 281.911 65.7131C281.805 65.821 281.664 65.9129 281.488 65.9886C281.312 66.0644 281.097 66.1023 280.843 66.1023ZM280.945 65.5C281.21 65.5 281.434 65.4479 281.616 65.3438C281.799 65.2396 281.938 65.1051 282.031 64.9403C282.125 64.7756 282.173 64.6023 282.173 64.4205V63.8068C282.144 63.8409 282.082 63.8722 281.985 63.9006C281.89 63.9271 281.781 63.9508 281.656 63.9716C281.532 63.9905 281.412 64.0076 281.295 64.0227C281.179 64.036 281.085 64.0473 281.013 64.0568C280.839 64.0795 280.676 64.1165 280.525 64.1676C280.375 64.2169 280.254 64.2917 280.161 64.392C280.07 64.4905 280.025 64.625 280.025 64.7955C280.025 65.0284 280.111 65.2045 280.283 65.3239C280.458 65.4413 280.678 65.5 280.945 65.5ZM285.839 66.0909C285.43 66.0909 285.078 65.9943 284.783 65.8011C284.487 65.608 284.26 65.3419 284.101 65.0028C283.942 64.6638 283.862 64.2765 283.862 63.8409C283.862 63.3977 283.944 63.0066 284.107 62.6676C284.271 62.3267 284.5 62.0606 284.794 61.8693C285.089 61.6761 285.434 61.5795 285.828 61.5795C286.135 61.5795 286.411 61.6364 286.658 61.75C286.904 61.8636 287.106 62.0227 287.263 62.2273C287.42 62.4318 287.518 62.6705 287.555 62.9432H286.885C286.834 62.7443 286.72 62.5682 286.544 62.4148C286.37 62.2595 286.135 62.1818 285.839 62.1818C285.578 62.1818 285.349 62.25 285.152 62.3864C284.957 62.5208 284.804 62.7112 284.695 62.9574C284.587 63.2017 284.533 63.4886 284.533 63.8182C284.533 64.1553 284.586 64.4489 284.692 64.6989C284.8 64.9489 284.951 65.143 285.146 65.2812C285.343 65.4195 285.574 65.4886 285.839 65.4886C286.014 65.4886 286.172 65.4583 286.314 65.3977C286.456 65.3371 286.576 65.25 286.675 65.1364C286.773 65.0227 286.843 64.8864 286.885 64.7273H287.555C287.518 64.9848 287.424 65.2169 287.274 65.4233C287.126 65.6278 286.93 65.7907 286.686 65.9119C286.444 66.0312 286.161 66.0909 285.839 66.0909ZM289.161 64.4091L289.149 63.5795H289.286L291.195 61.6364H292.024L289.99 63.6932H289.933L289.161 64.4091ZM288.536 66V60.1818H289.206V66H288.536ZM291.308 66L289.604 63.8409L290.081 63.375L292.161 66H291.308Z" fill="white"/>
<path d="M157.705 78.1818H158.545L160.523 83.0114H160.591L162.568 78.1818H163.409V84H162.75V79.5795H162.693L160.875 84H160.239L158.42 79.5795H158.364V84H157.705V78.1818ZM166.504 84.0909C166.11 84.0909 165.764 83.9972 165.467 83.8097C165.171 83.6222 164.94 83.3598 164.773 83.0227C164.609 82.6856 164.526 82.2917 164.526 81.8409C164.526 81.3864 164.609 80.9896 164.773 80.6506C164.94 80.3116 165.171 80.0483 165.467 79.8608C165.764 79.6733 166.11 79.5795 166.504 79.5795C166.897 79.5795 167.242 79.6733 167.538 79.8608C167.835 80.0483 168.066 80.3116 168.231 80.6506C168.397 80.9896 168.481 81.3864 168.481 81.8409C168.481 82.2917 168.397 82.6856 168.231 83.0227C168.066 83.3598 167.835 83.6222 167.538 83.8097C167.242 83.9972 166.897 84.0909 166.504 84.0909ZM166.504 83.4886C166.803 83.4886 167.049 83.4119 167.242 83.2585C167.435 83.1051 167.578 82.9034 167.671 82.6534C167.764 82.4034 167.81 82.1326 167.81 81.8409C167.81 81.5492 167.764 81.2775 167.671 81.0256C167.578 80.7737 167.435 80.5701 167.242 80.4148C167.049 80.2595 166.803 80.1818 166.504 80.1818C166.204 80.1818 165.958 80.2595 165.765 80.4148C165.572 80.5701 165.429 80.7737 165.336 81.0256C165.243 81.2775 165.197 81.5492 165.197 81.8409C165.197 82.1326 165.243 82.4034 165.336 82.6534C165.429 82.9034 165.572 83.1051 165.765 83.2585C165.958 83.4119 166.204 83.4886 166.504 83.4886ZM172.916 79.6364L171.303 84H170.621L169.007 79.6364H169.734L170.939 83.1136H170.984L172.189 79.6364H172.916ZM175.474 84.0909C175.054 84.0909 174.691 83.9981 174.386 83.8125C174.083 83.625 173.849 83.3636 173.685 83.0284C173.522 82.6913 173.44 82.2992 173.44 81.8523C173.44 81.4053 173.522 81.0114 173.685 80.6705C173.849 80.3277 174.079 80.0606 174.372 79.8693C174.668 79.6761 175.012 79.5795 175.406 79.5795C175.634 79.5795 175.858 79.6174 176.08 79.6932C176.301 79.7689 176.503 79.892 176.685 80.0625C176.866 80.2311 177.011 80.4545 177.119 80.733C177.227 81.0114 177.281 81.3542 177.281 81.7614V82.0455H173.918V81.4659H176.599C176.599 81.2197 176.55 81 176.452 80.8068C176.355 80.6136 176.217 80.4612 176.037 80.3494C175.859 80.2377 175.649 80.1818 175.406 80.1818C175.139 80.1818 174.908 80.2481 174.713 80.3807C174.52 80.5114 174.371 80.6818 174.267 80.892C174.163 81.1023 174.111 81.3277 174.111 81.5682V81.9545C174.111 82.2841 174.168 82.5634 174.281 82.7926C174.397 83.0199 174.557 83.1932 174.761 83.3125C174.966 83.4299 175.204 83.4886 175.474 83.4886C175.651 83.4886 175.81 83.464 175.952 83.4148C176.096 83.3636 176.22 83.2879 176.324 83.1875C176.428 83.0852 176.509 82.9583 176.565 82.8068L177.213 82.9886C177.145 83.2083 177.03 83.4015 176.869 83.5682C176.708 83.733 176.509 83.8617 176.273 83.9545C176.036 84.0455 175.77 84.0909 175.474 84.0909ZM180.642 84V78.1818H182.608C183.063 78.1818 183.436 78.2595 183.727 78.4148C184.019 78.5682 184.235 78.7794 184.375 79.0483C184.515 79.3172 184.585 79.6231 184.585 79.9659C184.585 80.3087 184.515 80.6127 184.375 80.8778C184.235 81.143 184.02 81.3513 183.73 81.5028C183.44 81.6525 183.07 81.7273 182.619 81.7273H181.028V81.0909H182.597C182.907 81.0909 183.157 81.0455 183.347 80.9545C183.538 80.8636 183.676 80.7348 183.761 80.5682C183.848 80.3996 183.892 80.1989 183.892 79.9659C183.892 79.733 183.848 79.5294 183.761 79.3551C183.674 79.1809 183.535 79.0464 183.344 78.9517C183.152 78.8551 182.9 78.8068 182.585 78.8068H181.347V84H180.642ZM183.381 81.3864L184.812 84H183.994L182.585 81.3864H183.381ZM185.668 84V79.6364H186.339V84H185.668ZM186.009 78.9091C185.879 78.9091 185.766 78.8646 185.671 78.7756C185.578 78.6866 185.532 78.5795 185.532 78.4545C185.532 78.3295 185.578 78.2225 185.671 78.1335C185.766 78.0445 185.879 78 186.009 78C186.14 78 186.252 78.0445 186.344 78.1335C186.439 78.2225 186.487 78.3295 186.487 78.4545C186.487 78.5795 186.439 78.6866 186.344 78.7756C186.252 78.8646 186.14 78.9091 186.009 78.9091ZM189.328 85.7273C189.004 85.7273 188.726 85.6856 188.493 85.6023C188.26 85.5208 188.066 85.4129 187.911 85.2784C187.757 85.1458 187.635 85.0038 187.544 84.8523L188.078 84.4773C188.139 84.5568 188.215 84.6477 188.308 84.75C188.401 84.8542 188.528 84.9441 188.689 85.0199C188.852 85.0975 189.065 85.1364 189.328 85.1364C189.68 85.1364 189.971 85.0511 190.2 84.8807C190.429 84.7102 190.544 84.4432 190.544 84.0795V83.1932H190.487C190.438 83.2727 190.368 83.3712 190.277 83.4886C190.188 83.6042 190.059 83.7074 189.891 83.7983C189.724 83.8873 189.499 83.9318 189.214 83.9318C188.862 83.9318 188.546 83.8485 188.266 83.6818C187.987 83.5152 187.767 83.2727 187.604 82.9545C187.443 82.6364 187.362 82.25 187.362 81.7955C187.362 81.3485 187.441 80.9593 187.598 80.6278C187.755 80.2945 187.974 80.0369 188.254 79.8551C188.535 79.6714 188.858 79.5795 189.226 79.5795C189.51 79.5795 189.735 79.6269 189.902 79.7216C190.071 79.8144 190.199 79.9205 190.288 80.0398C190.379 80.1572 190.449 80.2538 190.499 80.3295H190.567V79.6364H191.214V84.125C191.214 84.5 191.129 84.8049 190.959 85.0398C190.79 85.2765 190.563 85.4498 190.277 85.5597C189.993 85.6714 189.677 85.7273 189.328 85.7273ZM189.305 83.3295C189.574 83.3295 189.802 83.268 189.987 83.1449C190.173 83.0218 190.314 82.8447 190.411 82.6136C190.507 82.3826 190.555 82.1061 190.555 81.7841C190.555 81.4697 190.508 81.1922 190.413 80.9517C190.319 80.7112 190.179 80.5227 189.993 80.3864C189.807 80.25 189.578 80.1818 189.305 80.1818C189.021 80.1818 188.785 80.2538 188.595 80.3977C188.408 80.5417 188.267 80.7348 188.172 80.9773C188.079 81.2197 188.033 81.4886 188.033 81.7841C188.033 82.0871 188.08 82.3551 188.175 82.5881C188.271 82.8191 188.413 83.0009 188.601 83.1335C188.79 83.2642 189.025 83.3295 189.305 83.3295ZM193.112 81.375V84H192.442V78.1818H193.112V80.3182H193.169C193.271 80.0928 193.425 79.9138 193.629 79.7812C193.836 79.6468 194.11 79.5795 194.453 79.5795C194.75 79.5795 195.011 79.6392 195.234 79.7585C195.458 79.8759 195.631 80.0568 195.754 80.3011C195.879 80.5436 195.942 80.8523 195.942 81.2273V84H195.271V81.2727C195.271 80.9261 195.181 80.6581 195.001 80.4688C194.823 80.2775 194.576 80.1818 194.26 80.1818C194.04 80.1818 193.843 80.2282 193.669 80.321C193.497 80.4138 193.36 80.5492 193.26 80.7273C193.161 80.9053 193.112 81.1212 193.112 81.375ZM199.066 79.6364V80.2045H196.805V79.6364H199.066ZM197.464 78.5909H198.134V82.75C198.134 82.9394 198.162 83.0814 198.217 83.1761C198.273 83.2689 198.345 83.3314 198.433 83.3636C198.522 83.3939 198.615 83.4091 198.714 83.4091C198.788 83.4091 198.848 83.4053 198.896 83.3977C198.943 83.3883 198.981 83.3807 199.009 83.375L199.146 83.9773C199.1 83.9943 199.037 84.0114 198.955 84.0284C198.874 84.0473 198.771 84.0568 198.646 84.0568C198.456 84.0568 198.271 84.0161 198.089 83.9347C197.909 83.8532 197.759 83.7292 197.64 83.5625C197.522 83.3958 197.464 83.1856 197.464 82.9318V78.5909Z" fill="white"/>
</svg>
