<svg width="304" height="167" viewBox="0 0 304 167" fill="none" xmlns="http://www.w3.org/2000/svg">
<path d="M65.4148 86H64.3068L67.5114 77.2727H68.6023L71.8068 86H70.6989L68.0909 78.6534H68.0227L65.4148 86ZM65.8239 82.5909H70.2898V83.5284H65.8239V82.5909Z" fill="white"/>
<rect x="54.5" y="68.5" width="27" height="27" rx="1.5" stroke="white"/>
<rect x="54.5" y="124.5" width="93" height="27" rx="1.5" stroke="white"/>
<path d="M102.83 79.4545C102.778 79.0227 102.571 78.6875 102.207 78.4489C101.844 78.2102 101.398 78.0909 100.869 78.0909C100.483 78.0909 100.145 78.1534 99.8551 78.2784C99.5682 78.4034 99.3438 78.5753 99.1818 78.794C99.0227 79.0128 98.9432 79.2614 98.9432 79.5398C98.9432 79.7727 98.9986 79.973 99.1094 80.1406C99.223 80.3054 99.3679 80.4432 99.544 80.554C99.7202 80.6619 99.9048 80.7514 100.098 80.8224C100.291 80.8906 100.469 80.946 100.631 80.9886L101.517 81.2273C101.744 81.2869 101.997 81.3693 102.276 81.4744C102.557 81.5795 102.825 81.723 103.081 81.9048C103.339 82.0838 103.553 82.3139 103.72 82.5952C103.888 82.8764 103.972 83.2216 103.972 83.6307C103.972 84.1023 103.848 84.5284 103.601 84.9091C103.357 85.2898 102.999 85.5923 102.527 85.8168C102.058 86.0412 101.489 86.1534 100.818 86.1534C100.193 86.1534 99.652 86.0526 99.1946 85.8509C98.7401 85.6491 98.3821 85.3679 98.1207 85.0071C97.8622 84.6463 97.7159 84.2273 97.6818 83.75H98.7727C98.8011 84.0795 98.9119 84.3523 99.1051 84.5682C99.3011 84.7812 99.5483 84.9403 99.8466 85.0455C100.148 85.1477 100.472 85.1989 100.818 85.1989C101.222 85.1989 101.584 85.1335 101.905 85.0028C102.226 84.8693 102.48 84.6847 102.668 84.4489C102.855 84.2102 102.949 83.9318 102.949 83.6136C102.949 83.3239 102.868 83.0881 102.706 82.9062C102.544 82.7244 102.331 82.5767 102.067 82.4631C101.803 82.3494 101.517 82.25 101.21 82.1648L100.136 81.858C99.4545 81.6619 98.9148 81.3821 98.517 81.0185C98.1193 80.6548 97.9205 80.179 97.9205 79.5909C97.9205 79.1023 98.0526 78.6761 98.3168 78.3125C98.5838 77.946 98.9418 77.6619 99.3906 77.4602C99.8423 77.2557 100.347 77.1534 100.903 77.1534C101.466 77.1534 101.966 77.2543 102.403 77.456C102.841 77.6548 103.188 77.9276 103.443 78.2741C103.702 78.6207 103.838 79.0142 103.852 79.4545H102.83Z" fill="white"/>
<path d="M133.75 86H131.057V77.2727H133.869C134.716 77.2727 135.44 77.4474 136.043 77.7969C136.645 78.1435 137.107 78.642 137.428 79.2926C137.749 79.9403 137.909 80.7159 137.909 81.6193C137.909 82.5284 137.747 83.3111 137.423 83.9673C137.099 84.6207 136.628 85.1236 136.009 85.4759C135.389 85.8253 134.636 86 133.75 86ZM132.114 85.0625H133.682C134.403 85.0625 135.001 84.9233 135.476 84.6449C135.95 84.3665 136.304 83.9702 136.537 83.456C136.77 82.9418 136.886 82.3295 136.886 81.6193C136.886 80.9148 136.771 80.3082 136.541 79.7997C136.311 79.2884 135.967 78.8963 135.51 78.6236C135.053 78.348 134.483 78.2102 133.801 78.2102H132.114V85.0625Z" fill="white"/>
<rect x="87.5" y="68.5" width="27" height="27" rx="1.5" stroke="white"/>
<path d="M97.642 53L95.2557 44.2727H96.3295L98.1534 51.3807H98.2386L100.097 44.2727H101.29L103.148 51.3807H103.233L105.057 44.2727H106.131L103.744 53H102.653L100.727 46.0455H100.659L98.733 53H97.642Z" fill="white"/>
<rect x="87.5" y="35.5" width="27" height="27" rx="1.5" stroke="white"/>
<path d="M245.398 77.2727H246.455V83.5114C246.455 84.0682 246.352 84.5412 246.148 84.9304C245.943 85.3196 245.655 85.6151 245.283 85.8168C244.911 86.0185 244.472 86.1193 243.966 86.1193C243.489 86.1193 243.064 86.0327 242.692 85.8594C242.32 85.6832 242.027 85.4332 241.814 85.1094C241.601 84.7855 241.494 84.4006 241.494 83.9545H242.534C242.534 84.2017 242.595 84.4176 242.717 84.6023C242.842 84.7841 243.013 84.9261 243.229 85.0284C243.445 85.1307 243.69 85.1818 243.966 85.1818C244.27 85.1818 244.528 85.1179 244.741 84.9901C244.955 84.8622 245.116 84.6747 245.227 84.4276C245.341 84.1776 245.398 83.8722 245.398 83.5114V77.2727Z" fill="white"/>
<rect x="231.5" y="68.5" width="27" height="27" rx="1.5" stroke="white"/>
<rect x="120.5" y="68.5" width="27" height="27" rx="1.5" stroke="white"/>
<path d="M10.7045 79.1818H11.5455L13.5227 84.0114H13.5909L15.5682 79.1818H16.4091V85H15.75V80.5795H15.6932L13.875 85H13.2386L11.4205 80.5795H11.3636V85H10.7045V79.1818ZM19.5036 85.0909C19.1096 85.0909 18.764 84.9972 18.4666 84.8097C18.1712 84.6222 17.9401 84.3598 17.7734 84.0227C17.6087 83.6856 17.5263 83.2917 17.5263 82.8409C17.5263 82.3864 17.6087 81.9896 17.7734 81.6506C17.9401 81.3116 18.1712 81.0483 18.4666 80.8608C18.764 80.6733 19.1096 80.5795 19.5036 80.5795C19.8975 80.5795 20.2422 80.6733 20.5376 80.8608C20.835 81.0483 21.0661 81.3116 21.2308 81.6506C21.3975 81.9896 21.4808 82.3864 21.4808 82.8409C21.4808 83.2917 21.3975 83.6856 21.2308 84.0227C21.0661 84.3598 20.835 84.6222 20.5376 84.8097C20.2422 84.9972 19.8975 85.0909 19.5036 85.0909ZM19.5036 84.4886C19.8028 84.4886 20.049 84.4119 20.2422 84.2585C20.4354 84.1051 20.5784 83.9034 20.6712 83.6534C20.764 83.4034 20.8104 83.1326 20.8104 82.8409C20.8104 82.5492 20.764 82.2775 20.6712 82.0256C20.5784 81.7737 20.4354 81.5701 20.2422 81.4148C20.049 81.2595 19.8028 81.1818 19.5036 81.1818C19.2043 81.1818 18.9581 81.2595 18.7649 81.4148C18.5717 81.5701 18.4287 81.7737 18.3359 82.0256C18.2431 82.2775 18.1967 82.5492 18.1967 82.8409C18.1967 83.1326 18.2431 83.4034 18.3359 83.6534C18.4287 83.9034 18.5717 84.1051 18.7649 84.2585C18.9581 84.4119 19.2043 84.4886 19.5036 84.4886ZM25.9162 80.6364L24.3026 85H23.6207L22.0071 80.6364H22.7344L23.9389 84.1136H23.9844L25.1889 80.6364H25.9162ZM28.4744 85.0909C28.054 85.0909 27.6913 84.9981 27.3864 84.8125C27.0833 84.625 26.8494 84.3636 26.6847 84.0284C26.5218 83.6913 26.4403 83.2992 26.4403 82.8523C26.4403 82.4053 26.5218 82.0114 26.6847 81.6705C26.8494 81.3277 27.0786 81.0606 27.3722 80.8693C27.6676 80.6761 28.0123 80.5795 28.4062 80.5795C28.6335 80.5795 28.858 80.6174 29.0795 80.6932C29.3011 80.7689 29.5028 80.892 29.6847 81.0625C29.8665 81.2311 30.0114 81.4545 30.1193 81.733C30.2273 82.0114 30.2812 82.3542 30.2812 82.7614V83.0455H26.9176V82.4659H29.5994C29.5994 82.2197 29.5502 82 29.4517 81.8068C29.3551 81.6136 29.2169 81.4612 29.0369 81.3494C28.8589 81.2377 28.6487 81.1818 28.4062 81.1818C28.1392 81.1818 27.9081 81.2481 27.7131 81.3807C27.5199 81.5114 27.3712 81.6818 27.267 81.892C27.1629 82.1023 27.1108 82.3277 27.1108 82.5682V82.9545C27.1108 83.2841 27.1676 83.5634 27.2812 83.7926C27.3968 84.0199 27.5568 84.1932 27.7614 84.3125C27.9659 84.4299 28.2036 84.4886 28.4744 84.4886C28.6506 84.4886 28.8097 84.464 28.9517 84.4148C29.0956 84.3636 29.2197 84.2879 29.3239 84.1875C29.428 84.0852 29.5085 83.9583 29.5653 83.8068L30.2131 83.9886C30.1449 84.2083 30.0303 84.4015 29.8693 84.5682C29.7083 84.733 29.5095 84.8617 29.2727 84.9545C29.036 85.0455 28.7699 85.0909 28.4744 85.0909ZM33.642 85V79.1818H34.3466V84.375H37.0511V85H33.642ZM39.8807 85.0909C39.4602 85.0909 39.0975 84.9981 38.7926 84.8125C38.4896 84.625 38.2557 84.3636 38.0909 84.0284C37.928 83.6913 37.8466 83.2992 37.8466 82.8523C37.8466 82.4053 37.928 82.0114 38.0909 81.6705C38.2557 81.3277 38.4848 81.0606 38.7784 80.8693C39.0739 80.6761 39.4186 80.5795 39.8125 80.5795C40.0398 80.5795 40.2642 80.6174 40.4858 80.6932C40.7074 80.7689 40.9091 80.892 41.0909 81.0625C41.2727 81.2311 41.4176 81.4545 41.5256 81.733C41.6335 82.0114 41.6875 82.3542 41.6875 82.7614V83.0455H38.3239V82.4659H41.0057C41.0057 82.2197 40.9564 82 40.858 81.8068C40.7614 81.6136 40.6231 81.4612 40.4432 81.3494C40.2652 81.2377 40.0549 81.1818 39.8125 81.1818C39.5455 81.1818 39.3144 81.2481 39.1193 81.3807C38.9261 81.5114 38.7775 81.6818 38.6733 81.892C38.5691 82.1023 38.517 82.3277 38.517 82.5682V82.9545C38.517 83.2841 38.5739 83.5634 38.6875 83.7926C38.803 84.0199 38.9631 84.1932 39.1676 84.3125C39.3722 84.4299 39.6098 84.4886 39.8807 84.4886C40.0568 84.4886 40.2159 84.464 40.358 84.4148C40.5019 84.3636 40.6259 84.2879 40.7301 84.1875C40.8343 84.0852 40.9148 83.9583 40.9716 83.8068L41.6193 83.9886C41.5511 84.2083 41.4366 84.4015 41.2756 84.5682C41.1146 84.733 40.9157 84.8617 40.679 84.9545C40.4422 85.0455 40.1761 85.0909 39.8807 85.0909ZM44.6506 80.6364V81.2045H42.2983V80.6364H44.6506ZM43.0028 85V80.0341C43.0028 79.7841 43.0616 79.5758 43.179 79.4091C43.2964 79.2424 43.4489 79.1174 43.6364 79.0341C43.8239 78.9508 44.0218 78.9091 44.2301 78.9091C44.3949 78.9091 44.5294 78.9223 44.6335 78.9489C44.7377 78.9754 44.8153 79 44.8665 79.0227L44.6733 79.6023C44.6392 79.5909 44.5919 79.5767 44.5312 79.5597C44.4725 79.5426 44.3949 79.5341 44.2983 79.5341C44.0767 79.5341 43.9167 79.59 43.8182 79.7017C43.7216 79.8134 43.6733 79.9773 43.6733 80.1932V85H43.0028ZM47.4879 80.6364V81.2045H45.2266V80.6364H47.4879ZM45.8857 79.5909H46.5561V83.75C46.5561 83.9394 46.5836 84.0814 46.6385 84.1761C46.6953 84.2689 46.7673 84.3314 46.8544 84.3636C46.9434 84.3939 47.0372 84.4091 47.1357 84.4091C47.2095 84.4091 47.2701 84.4053 47.3175 84.3977C47.3648 84.3883 47.4027 84.3807 47.4311 84.375L47.5675 84.9773C47.522 84.9943 47.4586 85.0114 47.3771 85.0284C47.2957 85.0473 47.1925 85.0568 47.0675 85.0568C46.8781 85.0568 46.6925 85.0161 46.5107 84.9347C46.3307 84.8532 46.1811 84.7292 46.0618 84.5625C45.9444 84.3958 45.8857 84.1856 45.8857 83.9318V79.5909Z" fill="white"/>
<path d="M159.932 135.182H160.636V139.341C160.636 139.712 160.568 140.027 160.432 140.287C160.295 140.546 160.103 140.743 159.855 140.878C159.607 141.012 159.314 141.08 158.977 141.08C158.659 141.08 158.376 141.022 158.128 140.906C157.88 140.789 157.685 140.622 157.543 140.406C157.401 140.19 157.33 139.934 157.33 139.636H158.023C158.023 139.801 158.063 139.945 158.145 140.068C158.228 140.189 158.342 140.284 158.486 140.352C158.63 140.42 158.794 140.455 158.977 140.455C159.18 140.455 159.352 140.412 159.494 140.327C159.636 140.241 159.744 140.116 159.818 139.952C159.894 139.785 159.932 139.581 159.932 139.341V135.182ZM164.707 139.216V136.636H165.378V141H164.707V140.261H164.662C164.56 140.483 164.401 140.671 164.185 140.827C163.969 140.98 163.696 141.057 163.366 141.057C163.094 141.057 162.851 140.997 162.639 140.878C162.427 140.757 162.26 140.575 162.139 140.332C162.018 140.088 161.957 139.78 161.957 139.409V136.636H162.628V139.364C162.628 139.682 162.717 139.936 162.895 140.125C163.075 140.314 163.304 140.409 163.582 140.409C163.749 140.409 163.919 140.366 164.091 140.281C164.265 140.196 164.411 140.065 164.528 139.889C164.648 139.713 164.707 139.489 164.707 139.216ZM166.606 141V136.636H167.254V137.318H167.31C167.401 137.085 167.548 136.904 167.751 136.776C167.953 136.645 168.197 136.58 168.481 136.58C168.769 136.58 169.008 136.645 169.2 136.776C169.393 136.904 169.543 137.085 169.651 137.318H169.697C169.808 137.093 169.976 136.914 170.2 136.781C170.423 136.647 170.691 136.58 171.004 136.58C171.394 136.58 171.713 136.702 171.961 136.946C172.209 137.188 172.333 137.566 172.333 138.08V141H171.663V138.08C171.663 137.758 171.575 137.527 171.398 137.389C171.222 137.251 171.015 137.182 170.776 137.182C170.469 137.182 170.232 137.275 170.063 137.46C169.895 137.644 169.81 137.877 169.81 138.159V141H169.129V138.011C169.129 137.763 169.048 137.563 168.887 137.412C168.726 137.259 168.519 137.182 168.265 137.182C168.091 137.182 167.928 137.228 167.776 137.321C167.627 137.414 167.505 137.543 167.413 137.707C167.322 137.87 167.276 138.059 167.276 138.273V141H166.606ZM173.559 142.636V136.636H174.207V137.33H174.286C174.335 137.254 174.404 137.157 174.491 137.04C174.58 136.92 174.707 136.814 174.871 136.722C175.038 136.627 175.263 136.58 175.548 136.58C175.915 136.58 176.239 136.671 176.519 136.855C176.799 137.039 177.018 137.299 177.175 137.636C177.333 137.973 177.411 138.371 177.411 138.83C177.411 139.292 177.333 139.692 177.175 140.031C177.018 140.368 176.8 140.63 176.522 140.815C176.244 140.999 175.923 141.091 175.559 141.091C175.279 141.091 175.054 141.045 174.886 140.952C174.717 140.857 174.587 140.75 174.496 140.631C174.406 140.509 174.335 140.409 174.286 140.33H174.229V142.636H173.559ZM174.218 138.818C174.218 139.148 174.266 139.438 174.363 139.69C174.46 139.94 174.601 140.136 174.786 140.278C174.972 140.419 175.199 140.489 175.468 140.489C175.748 140.489 175.982 140.415 176.17 140.267C176.359 140.117 176.501 139.917 176.596 139.665C176.692 139.411 176.741 139.129 176.741 138.818C176.741 138.511 176.693 138.235 176.599 137.989C176.506 137.741 176.365 137.545 176.175 137.401C175.988 137.255 175.752 137.182 175.468 137.182C175.195 137.182 174.966 137.251 174.781 137.389C174.595 137.526 174.455 137.717 174.36 137.963C174.265 138.207 174.218 138.492 174.218 138.818Z" fill="white"/>
<path d="M92.9318 22.1818H93.6364V26.3409C93.6364 26.7121 93.5682 27.0275 93.4318 27.2869C93.2955 27.5464 93.1032 27.7434 92.8551 27.8778C92.607 28.0123 92.3144 28.0795 91.9773 28.0795C91.6591 28.0795 91.3759 28.0218 91.1278 27.9062C90.8797 27.7888 90.6847 27.6222 90.5426 27.4062C90.4006 27.1903 90.3295 26.9337 90.3295 26.6364H91.0227C91.0227 26.8011 91.0634 26.9451 91.1449 27.0682C91.2282 27.1894 91.3419 27.2841 91.4858 27.3523C91.6297 27.4205 91.7936 27.4545 91.9773 27.4545C92.1799 27.4545 92.3523 27.4119 92.4943 27.3267C92.6364 27.2415 92.7443 27.1165 92.8182 26.9517C92.8939 26.785 92.9318 26.5814 92.9318 26.3409V22.1818ZM97.7074 26.2159V23.6364H98.3778V28H97.7074V27.2614H97.6619C97.5597 27.483 97.4006 27.6714 97.1847 27.8267C96.9688 27.9801 96.696 28.0568 96.3665 28.0568C96.0938 28.0568 95.8513 27.9972 95.6392 27.8778C95.4271 27.7566 95.2604 27.5748 95.1392 27.3324C95.018 27.0881 94.9574 26.7803 94.9574 26.4091V23.6364H95.6278V26.3636C95.6278 26.6818 95.7169 26.9356 95.8949 27.125C96.0748 27.3144 96.304 27.4091 96.5824 27.4091C96.7491 27.4091 96.9186 27.3665 97.0909 27.2812C97.2652 27.196 97.411 27.0653 97.5284 26.8892C97.6477 26.7131 97.7074 26.4886 97.7074 26.2159ZM99.6058 28V23.6364H100.254V24.3182H100.31C100.401 24.0852 100.548 23.9044 100.751 23.7756C100.953 23.6449 101.197 23.5795 101.481 23.5795C101.769 23.5795 102.008 23.6449 102.2 23.7756C102.393 23.9044 102.543 24.0852 102.651 24.3182H102.697C102.808 24.0928 102.976 23.9138 103.2 23.7812C103.423 23.6468 103.691 23.5795 104.004 23.5795C104.394 23.5795 104.713 23.7017 104.961 23.946C105.209 24.1884 105.333 24.5663 105.333 25.0795V28H104.663V25.0795C104.663 24.7576 104.575 24.5275 104.398 24.3892C104.222 24.2509 104.015 24.1818 103.776 24.1818C103.469 24.1818 103.232 24.2746 103.063 24.4602C102.895 24.6439 102.81 24.8769 102.81 25.1591V28H102.129V25.0114C102.129 24.7633 102.048 24.5634 101.887 24.4119C101.726 24.2585 101.519 24.1818 101.265 24.1818C101.091 24.1818 100.928 24.2282 100.776 24.321C100.627 24.4138 100.505 24.5426 100.413 24.7074C100.322 24.8703 100.276 25.0587 100.276 25.2727V28H99.6058ZM106.559 29.6364V23.6364H107.207V24.3295H107.286C107.335 24.2538 107.404 24.1572 107.491 24.0398C107.58 23.9205 107.707 23.8144 107.871 23.7216C108.038 23.6269 108.263 23.5795 108.548 23.5795C108.915 23.5795 109.239 23.6714 109.519 23.8551C109.799 24.0388 110.018 24.2992 110.175 24.6364C110.333 24.9735 110.411 25.3712 110.411 25.8295C110.411 26.2917 110.333 26.6922 110.175 27.0312C110.018 27.3684 109.8 27.6297 109.522 27.8153C109.244 27.9991 108.923 28.0909 108.559 28.0909C108.279 28.0909 108.054 28.0445 107.886 27.9517C107.717 27.857 107.587 27.75 107.496 27.6307C107.406 27.5095 107.335 27.4091 107.286 27.3295H107.229V29.6364H106.559ZM107.218 25.8182C107.218 26.1477 107.266 26.4384 107.363 26.6903C107.46 26.9403 107.601 27.1364 107.786 27.2784C107.972 27.4186 108.199 27.4886 108.468 27.4886C108.748 27.4886 108.982 27.4148 109.17 27.267C109.359 27.1174 109.501 26.9167 109.596 26.6648C109.692 26.411 109.741 26.1288 109.741 25.8182C109.741 25.5114 109.693 25.2348 109.599 24.9886C109.506 24.7405 109.365 24.5445 109.175 24.4006C108.988 24.2547 108.752 24.1818 108.468 24.1818C108.195 24.1818 107.966 24.2509 107.781 24.3892C107.595 24.5256 107.455 24.7169 107.36 24.9631C107.265 25.2074 107.218 25.4924 107.218 25.8182Z" fill="white"/>
<path d="M157.705 79.1818H158.545L160.523 84.0114H160.591L162.568 79.1818H163.409V85H162.75V80.5795H162.693L160.875 85H160.239L158.42 80.5795H158.364V85H157.705V79.1818ZM166.504 85.0909C166.11 85.0909 165.764 84.9972 165.467 84.8097C165.171 84.6222 164.94 84.3598 164.773 84.0227C164.609 83.6856 164.526 83.2917 164.526 82.8409C164.526 82.3864 164.609 81.9896 164.773 81.6506C164.94 81.3116 165.171 81.0483 165.467 80.8608C165.764 80.6733 166.11 80.5795 166.504 80.5795C166.897 80.5795 167.242 80.6733 167.538 80.8608C167.835 81.0483 168.066 81.3116 168.231 81.6506C168.397 81.9896 168.481 82.3864 168.481 82.8409C168.481 83.2917 168.397 83.6856 168.231 84.0227C168.066 84.3598 167.835 84.6222 167.538 84.8097C167.242 84.9972 166.897 85.0909 166.504 85.0909ZM166.504 84.4886C166.803 84.4886 167.049 84.4119 167.242 84.2585C167.435 84.1051 167.578 83.9034 167.671 83.6534C167.764 83.4034 167.81 83.1326 167.81 82.8409C167.81 82.5492 167.764 82.2775 167.671 82.0256C167.578 81.7737 167.435 81.5701 167.242 81.4148C167.049 81.2595 166.803 81.1818 166.504 81.1818C166.204 81.1818 165.958 81.2595 165.765 81.4148C165.572 81.5701 165.429 81.7737 165.336 82.0256C165.243 82.2775 165.197 82.5492 165.197 82.8409C165.197 83.1326 165.243 83.4034 165.336 83.6534C165.429 83.9034 165.572 84.1051 165.765 84.2585C165.958 84.4119 166.204 84.4886 166.504 84.4886ZM172.916 80.6364L171.303 85H170.621L169.007 80.6364H169.734L170.939 84.1136H170.984L172.189 80.6364H172.916ZM175.474 85.0909C175.054 85.0909 174.691 84.9981 174.386 84.8125C174.083 84.625 173.849 84.3636 173.685 84.0284C173.522 83.6913 173.44 83.2992 173.44 82.8523C173.44 82.4053 173.522 82.0114 173.685 81.6705C173.849 81.3277 174.079 81.0606 174.372 80.8693C174.668 80.6761 175.012 80.5795 175.406 80.5795C175.634 80.5795 175.858 80.6174 176.08 80.6932C176.301 80.7689 176.503 80.892 176.685 81.0625C176.866 81.2311 177.011 81.4545 177.119 81.733C177.227 82.0114 177.281 82.3542 177.281 82.7614V83.0455H173.918V82.4659H176.599C176.599 82.2197 176.55 82 176.452 81.8068C176.355 81.6136 176.217 81.4612 176.037 81.3494C175.859 81.2377 175.649 81.1818 175.406 81.1818C175.139 81.1818 174.908 81.2481 174.713 81.3807C174.52 81.5114 174.371 81.6818 174.267 81.892C174.163 82.1023 174.111 82.3277 174.111 82.5682V82.9545C174.111 83.2841 174.168 83.5634 174.281 83.7926C174.397 84.0199 174.557 84.1932 174.761 84.3125C174.966 84.4299 175.204 84.4886 175.474 84.4886C175.651 84.4886 175.81 84.464 175.952 84.4148C176.096 84.3636 176.22 84.2879 176.324 84.1875C176.428 84.0852 176.509 83.9583 176.565 83.8068L177.213 83.9886C177.145 84.2083 177.03 84.4015 176.869 84.5682C176.708 84.733 176.509 84.8617 176.273 84.9545C176.036 85.0455 175.77 85.0909 175.474 85.0909ZM180.642 85V79.1818H182.608C183.063 79.1818 183.436 79.2595 183.727 79.4148C184.019 79.5682 184.235 79.7794 184.375 80.0483C184.515 80.3172 184.585 80.6231 184.585 80.9659C184.585 81.3087 184.515 81.6127 184.375 81.8778C184.235 82.143 184.02 82.3513 183.73 82.5028C183.44 82.6525 183.07 82.7273 182.619 82.7273H181.028V82.0909H182.597C182.907 82.0909 183.157 82.0455 183.347 81.9545C183.538 81.8636 183.676 81.7348 183.761 81.5682C183.848 81.3996 183.892 81.1989 183.892 80.9659C183.892 80.733 183.848 80.5294 183.761 80.3551C183.674 80.1809 183.535 80.0464 183.344 79.9517C183.152 79.8551 182.9 79.8068 182.585 79.8068H181.347V85H180.642ZM183.381 82.3864L184.812 85H183.994L182.585 82.3864H183.381ZM185.668 85V80.6364H186.339V85H185.668ZM186.009 79.9091C185.879 79.9091 185.766 79.8646 185.671 79.7756C185.578 79.6866 185.532 79.5795 185.532 79.4545C185.532 79.3295 185.578 79.2225 185.671 79.1335C185.766 79.0445 185.879 79 186.009 79C186.14 79 186.252 79.0445 186.344 79.1335C186.439 79.2225 186.487 79.3295 186.487 79.4545C186.487 79.5795 186.439 79.6866 186.344 79.7756C186.252 79.8646 186.14 79.9091 186.009 79.9091ZM189.328 86.7273C189.004 86.7273 188.726 86.6856 188.493 86.6023C188.26 86.5208 188.066 86.4129 187.911 86.2784C187.757 86.1458 187.635 86.0038 187.544 85.8523L188.078 85.4773C188.139 85.5568 188.215 85.6477 188.308 85.75C188.401 85.8542 188.528 85.9441 188.689 86.0199C188.852 86.0975 189.065 86.1364 189.328 86.1364C189.68 86.1364 189.971 86.0511 190.2 85.8807C190.429 85.7102 190.544 85.4432 190.544 85.0795V84.1932H190.487C190.438 84.2727 190.368 84.3712 190.277 84.4886C190.188 84.6042 190.059 84.7074 189.891 84.7983C189.724 84.8873 189.499 84.9318 189.214 84.9318C188.862 84.9318 188.546 84.8485 188.266 84.6818C187.987 84.5152 187.767 84.2727 187.604 83.9545C187.443 83.6364 187.362 83.25 187.362 82.7955C187.362 82.3485 187.441 81.9593 187.598 81.6278C187.755 81.2945 187.974 81.0369 188.254 80.8551C188.535 80.6714 188.858 80.5795 189.226 80.5795C189.51 80.5795 189.735 80.6269 189.902 80.7216C190.071 80.8144 190.199 80.9205 190.288 81.0398C190.379 81.1572 190.449 81.2538 190.499 81.3295H190.567V80.6364H191.214V85.125C191.214 85.5 191.129 85.8049 190.959 86.0398C190.79 86.2765 190.563 86.4498 190.277 86.5597C189.993 86.6714 189.677 86.7273 189.328 86.7273ZM189.305 84.3295C189.574 84.3295 189.802 84.268 189.987 84.1449C190.173 84.0218 190.314 83.8447 190.411 83.6136C190.507 83.3826 190.555 83.1061 190.555 82.7841C190.555 82.4697 190.508 82.1922 190.413 81.9517C190.319 81.7112 190.179 81.5227 189.993 81.3864C189.807 81.25 189.578 81.1818 189.305 81.1818C189.021 81.1818 188.785 81.2538 188.595 81.3977C188.408 81.5417 188.267 81.7348 188.172 81.9773C188.079 82.2197 188.033 82.4886 188.033 82.7841C188.033 83.0871 188.08 83.3551 188.175 83.5881C188.271 83.8191 188.413 84.0009 188.601 84.1335C188.79 84.2642 189.025 84.3295 189.305 84.3295ZM193.112 82.375V85H192.442V79.1818H193.112V81.3182H193.169C193.271 81.0928 193.425 80.9138 193.629 80.7812C193.836 80.6468 194.11 80.5795 194.453 80.5795C194.75 80.5795 195.011 80.6392 195.234 80.7585C195.458 80.8759 195.631 81.0568 195.754 81.3011C195.879 81.5436 195.942 81.8523 195.942 82.2273V85H195.271V82.2727C195.271 81.9261 195.181 81.6581 195.001 81.4688C194.823 81.2775 194.576 81.1818 194.26 81.1818C194.04 81.1818 193.843 81.2282 193.669 81.321C193.497 81.4138 193.36 81.5492 193.26 81.7273C193.161 81.9053 193.112 82.1212 193.112 82.375ZM199.066 80.6364V81.2045H196.805V80.6364H199.066ZM197.464 79.5909H198.134V83.75C198.134 83.9394 198.162 84.0814 198.217 84.1761C198.273 84.2689 198.345 84.3314 198.433 84.3636C198.522 84.3939 198.615 84.4091 198.714 84.4091C198.788 84.4091 198.848 84.4053 198.896 84.3977C198.943 84.3883 198.981 84.3807 199.009 84.375L199.146 84.9773C199.1 84.9943 199.037 85.0114 198.955 85.0284C198.874 85.0473 198.771 85.0568 198.646 85.0568C198.456 85.0568 198.271 85.0161 198.089 84.9347C197.909 84.8532 197.759 84.7292 197.64 84.5625C197.522 84.3958 197.464 84.1856 197.464 83.9318V79.5909Z" fill="white"/>
<path d="M68.8864 136.636C68.8523 136.348 68.714 136.125 68.4716 135.966C68.2292 135.807 67.9318 135.727 67.5795 135.727C67.322 135.727 67.0966 135.769 66.9034 135.852C66.7121 135.936 66.5625 136.05 66.4545 136.196C66.3485 136.342 66.2955 136.508 66.2955 136.693C66.2955 136.848 66.3324 136.982 66.4062 137.094C66.482 137.204 66.5786 137.295 66.696 137.369C66.8134 137.441 66.9366 137.501 67.0653 137.548C67.1941 137.594 67.3125 137.631 67.4205 137.659L68.0114 137.818C68.1629 137.858 68.3314 137.913 68.517 137.983C68.7045 138.053 68.8835 138.149 69.054 138.27C69.2263 138.389 69.3684 138.543 69.4801 138.73C69.5919 138.918 69.6477 139.148 69.6477 139.42C69.6477 139.735 69.5653 140.019 69.4006 140.273C69.2377 140.527 68.9991 140.728 68.6847 140.878C68.3722 141.027 67.9924 141.102 67.5455 141.102C67.1288 141.102 66.768 141.035 66.4631 140.901C66.16 140.766 65.9214 140.579 65.7472 140.338C65.5748 140.098 65.4773 139.818 65.4545 139.5H66.1818C66.2008 139.72 66.2746 139.902 66.4034 140.045C66.5341 140.187 66.6989 140.294 66.8977 140.364C67.0985 140.432 67.3144 140.466 67.5455 140.466C67.8144 140.466 68.0559 140.422 68.2699 140.335C68.4839 140.246 68.6534 140.123 68.7784 139.966C68.9034 139.807 68.9659 139.621 68.9659 139.409C68.9659 139.216 68.9119 139.059 68.804 138.938C68.696 138.816 68.554 138.718 68.3778 138.642C68.2017 138.566 68.0114 138.5 67.8068 138.443L67.0909 138.239C66.6364 138.108 66.2765 137.921 66.0114 137.679C65.7462 137.437 65.6136 137.119 65.6136 136.727C65.6136 136.402 65.7017 136.117 65.8778 135.875C66.0559 135.631 66.2945 135.441 66.5938 135.307C66.8949 135.17 67.2311 135.102 67.6023 135.102C67.9773 135.102 68.3106 135.17 68.6023 135.304C68.8939 135.437 69.125 135.618 69.2955 135.849C69.4678 136.08 69.5587 136.343 69.5682 136.636H68.8864ZM70.7152 142.636V136.636H71.3629V137.33H71.4425C71.4917 137.254 71.5599 137.157 71.647 137.04C71.736 136.92 71.8629 136.814 72.0277 136.722C72.1944 136.627 72.4197 136.58 72.7038 136.58C73.0713 136.58 73.3951 136.671 73.6754 136.855C73.9557 137.039 74.1745 137.299 74.3317 137.636C74.4889 137.973 74.5675 138.371 74.5675 138.83C74.5675 139.292 74.4889 139.692 74.3317 140.031C74.1745 140.368 73.9567 140.63 73.6783 140.815C73.3999 140.999 73.0788 141.091 72.7152 141.091C72.4349 141.091 72.2105 141.045 72.0419 140.952C71.8733 140.857 71.7436 140.75 71.6527 140.631C71.5618 140.509 71.4917 140.409 71.4425 140.33H71.3857V142.636H70.7152ZM71.3743 138.818C71.3743 139.148 71.4226 139.438 71.5192 139.69C71.6158 139.94 71.7569 140.136 71.9425 140.278C72.1281 140.419 72.3554 140.489 72.6243 140.489C72.9046 140.489 73.1385 140.415 73.326 140.267C73.5154 140.117 73.6574 139.917 73.7521 139.665C73.8487 139.411 73.897 139.129 73.897 138.818C73.897 138.511 73.8497 138.235 73.755 137.989C73.6622 137.741 73.5211 137.545 73.3317 137.401C73.1442 137.255 72.9084 137.182 72.6243 137.182C72.3516 137.182 72.1224 137.251 71.9368 137.389C71.7512 137.526 71.611 137.717 71.5163 137.963C71.4216 138.207 71.3743 138.492 71.3743 138.818ZM76.8743 141.102C76.5978 141.102 76.3468 141.05 76.1214 140.946C75.8961 140.84 75.7171 140.688 75.5845 140.489C75.4519 140.288 75.3857 140.045 75.3857 139.761C75.3857 139.511 75.4349 139.309 75.5334 139.153C75.6319 138.996 75.7635 138.873 75.9283 138.784C76.093 138.695 76.2749 138.629 76.4737 138.585C76.6745 138.54 76.8762 138.504 77.0788 138.477C77.344 138.443 77.5589 138.418 77.7237 138.401C77.8904 138.382 78.0116 138.35 78.0874 138.307C78.165 138.263 78.2038 138.187 78.2038 138.08V138.057C78.2038 137.777 78.1271 137.559 77.9737 137.403C77.8222 137.248 77.5921 137.17 77.2834 137.17C76.9633 137.17 76.7124 137.241 76.5305 137.381C76.3487 137.521 76.2209 137.67 76.147 137.83L75.5107 137.602C75.6243 137.337 75.7758 137.131 75.9652 136.983C76.1565 136.833 76.3648 136.729 76.5902 136.67C76.8175 136.61 77.041 136.58 77.2607 136.58C77.4008 136.58 77.5618 136.597 77.7436 136.631C77.9273 136.663 78.1044 136.73 78.2749 136.832C78.4472 136.935 78.5902 137.089 78.7038 137.295C78.8175 137.502 78.8743 137.778 78.8743 138.125V141H78.2038V140.409H78.1697C78.1243 140.504 78.0485 140.605 77.9425 140.713C77.8364 140.821 77.6953 140.913 77.5192 140.989C77.343 141.064 77.1281 141.102 76.8743 141.102ZM76.9766 140.5C77.2417 140.5 77.4652 140.448 77.647 140.344C77.8307 140.24 77.969 140.105 78.0618 139.94C78.1565 139.776 78.2038 139.602 78.2038 139.42V138.807C78.1754 138.841 78.1129 138.872 78.0163 138.901C77.9216 138.927 77.8118 138.951 77.6868 138.972C77.5637 138.991 77.4434 139.008 77.326 139.023C77.2105 139.036 77.1167 139.047 77.0447 139.057C76.8705 139.08 76.7076 139.116 76.5561 139.168C76.4065 139.217 76.2853 139.292 76.1925 139.392C76.1016 139.491 76.0561 139.625 76.0561 139.795C76.0561 140.028 76.1423 140.205 76.3146 140.324C76.4889 140.441 76.7095 140.5 76.9766 140.5ZM81.8707 141.091C81.4616 141.091 81.1094 140.994 80.8139 140.801C80.5185 140.608 80.2912 140.342 80.1321 140.003C79.973 139.664 79.8935 139.277 79.8935 138.841C79.8935 138.398 79.9749 138.007 80.1378 137.668C80.3026 137.327 80.5317 137.061 80.8253 136.869C81.1207 136.676 81.4654 136.58 81.8594 136.58C82.1662 136.58 82.4427 136.636 82.6889 136.75C82.9351 136.864 83.1368 137.023 83.294 137.227C83.4512 137.432 83.5488 137.67 83.5866 137.943H82.9162C82.8651 137.744 82.7514 137.568 82.5753 137.415C82.401 137.259 82.1662 137.182 81.8707 137.182C81.6094 137.182 81.3802 137.25 81.1832 137.386C80.9882 137.521 80.8357 137.711 80.7259 137.957C80.6179 138.202 80.5639 138.489 80.5639 138.818C80.5639 139.155 80.617 139.449 80.723 139.699C80.831 139.949 80.9825 140.143 81.1776 140.281C81.3745 140.42 81.6056 140.489 81.8707 140.489C82.045 140.489 82.2031 140.458 82.3452 140.398C82.4872 140.337 82.6075 140.25 82.706 140.136C82.8045 140.023 82.8745 139.886 82.9162 139.727H83.5866C83.5488 139.985 83.455 140.217 83.3054 140.423C83.1577 140.628 82.9616 140.791 82.7173 140.912C82.4749 141.031 82.1927 141.091 81.8707 141.091ZM86.3963 141.091C85.9759 141.091 85.6132 140.998 85.3082 140.812C85.0052 140.625 84.7713 140.364 84.6065 140.028C84.4437 139.691 84.3622 139.299 84.3622 138.852C84.3622 138.405 84.4437 138.011 84.6065 137.67C84.7713 137.328 85.0005 137.061 85.294 136.869C85.5895 136.676 85.9342 136.58 86.3281 136.58C86.5554 136.58 86.7798 136.617 87.0014 136.693C87.223 136.769 87.4247 136.892 87.6065 137.062C87.7884 137.231 87.9332 137.455 88.0412 137.733C88.1491 138.011 88.2031 138.354 88.2031 138.761V139.045H84.8395V138.466H87.5213C87.5213 138.22 87.4721 138 87.3736 137.807C87.277 137.614 87.1387 137.461 86.9588 137.349C86.7808 137.238 86.5705 137.182 86.3281 137.182C86.0611 137.182 85.83 137.248 85.6349 137.381C85.4418 137.511 85.2931 137.682 85.1889 137.892C85.0848 138.102 85.0327 138.328 85.0327 138.568V138.955C85.0327 139.284 85.0895 139.563 85.2031 139.793C85.3187 140.02 85.4787 140.193 85.6832 140.312C85.8878 140.43 86.1255 140.489 86.3963 140.489C86.5724 140.489 86.7315 140.464 86.8736 140.415C87.0175 140.364 87.1416 140.288 87.2457 140.188C87.3499 140.085 87.4304 139.958 87.4872 139.807L88.1349 139.989C88.0668 140.208 87.9522 140.402 87.7912 140.568C87.6302 140.733 87.4313 140.862 87.1946 140.955C86.9579 141.045 86.6918 141.091 86.3963 141.091Z" fill="white"/>
<path d="M265.943 85H265.205L267.341 79.1818H268.068L270.205 85H269.466L267.727 80.1023H267.682L265.943 85ZM266.216 82.7273H269.193V83.3523H266.216V82.7273ZM272.644 80.6364V81.2045H270.383V80.6364H272.644ZM271.042 79.5909H271.712V83.75C271.712 83.9394 271.74 84.0814 271.795 84.1761C271.852 84.2689 271.924 84.3314 272.011 84.3636C272.1 84.3939 272.193 84.4091 272.292 84.4091C272.366 84.4091 272.426 84.4053 272.474 84.3977C272.521 84.3883 272.559 84.3807 272.587 84.375L272.724 84.9773C272.678 84.9943 272.615 85.0114 272.533 85.0284C272.452 85.0473 272.349 85.0568 272.224 85.0568C272.034 85.0568 271.849 85.0161 271.667 84.9347C271.487 84.8532 271.337 84.7292 271.218 84.5625C271.101 84.3958 271.042 84.1856 271.042 83.9318V79.5909ZM275.55 80.6364V81.2045H273.289V80.6364H275.55ZM273.948 79.5909H274.619V83.75C274.619 83.9394 274.646 84.0814 274.701 84.1761C274.758 84.2689 274.83 84.3314 274.917 84.3636C275.006 84.3939 275.1 84.4091 275.198 84.4091C275.272 84.4091 275.333 84.4053 275.38 84.3977C275.427 84.3883 275.465 84.3807 275.494 84.375L275.63 84.9773C275.585 84.9943 275.521 85.0114 275.44 85.0284C275.358 85.0473 275.255 85.0568 275.13 85.0568C274.941 85.0568 274.755 85.0161 274.573 84.9347C274.393 84.8532 274.244 84.7292 274.124 84.5625C274.007 84.3958 273.948 84.1856 273.948 83.9318V79.5909ZM277.843 85.1023C277.567 85.1023 277.316 85.0502 277.09 84.946C276.865 84.84 276.686 84.6875 276.553 84.4886C276.421 84.2879 276.354 84.0455 276.354 83.7614C276.354 83.5114 276.404 83.3087 276.502 83.1534C276.601 82.9962 276.732 82.8731 276.897 82.7841C277.062 82.6951 277.244 82.6288 277.442 82.5852C277.643 82.5398 277.845 82.5038 278.048 82.4773C278.313 82.4432 278.528 82.4176 278.692 82.4006C278.859 82.3816 278.98 82.3504 279.056 82.3068C279.134 82.2633 279.173 82.1875 279.173 82.0795V82.0568C279.173 81.7765 279.096 81.5587 278.942 81.4034C278.791 81.2481 278.561 81.1705 278.252 81.1705C277.932 81.1705 277.681 81.2405 277.499 81.3807C277.317 81.5208 277.19 81.6705 277.116 81.8295L276.479 81.6023C276.593 81.3371 276.745 81.1307 276.934 80.983C277.125 80.8333 277.334 80.7292 277.559 80.6705C277.786 80.6098 278.01 80.5795 278.229 80.5795C278.37 80.5795 278.531 80.5966 278.712 80.6307C278.896 80.6629 279.073 80.7301 279.244 80.8324C279.416 80.9347 279.559 81.089 279.673 81.2955C279.786 81.5019 279.843 81.7784 279.843 82.125V85H279.173V84.4091H279.138C279.093 84.5038 279.017 84.6051 278.911 84.7131C278.805 84.821 278.664 84.9129 278.488 84.9886C278.312 85.0644 278.097 85.1023 277.843 85.1023ZM277.945 84.5C278.21 84.5 278.434 84.4479 278.616 84.3438C278.799 84.2396 278.938 84.1051 279.031 83.9403C279.125 83.7756 279.173 83.6023 279.173 83.4205V82.8068C279.144 82.8409 279.082 82.8722 278.985 82.9006C278.89 82.9271 278.781 82.9508 278.656 82.9716C278.532 82.9905 278.412 83.0076 278.295 83.0227C278.179 83.036 278.085 83.0473 278.013 83.0568C277.839 83.0795 277.676 83.1165 277.525 83.1676C277.375 83.2169 277.254 83.2917 277.161 83.392C277.07 83.4905 277.025 83.625 277.025 83.7955C277.025 84.0284 277.111 84.2045 277.283 84.3239C277.458 84.4413 277.678 84.5 277.945 84.5ZM282.839 85.0909C282.43 85.0909 282.078 84.9943 281.783 84.8011C281.487 84.608 281.26 84.3419 281.101 84.0028C280.942 83.6638 280.862 83.2765 280.862 82.8409C280.862 82.3977 280.944 82.0066 281.107 81.6676C281.271 81.3267 281.5 81.0606 281.794 80.8693C282.089 80.6761 282.434 80.5795 282.828 80.5795C283.135 80.5795 283.411 80.6364 283.658 80.75C283.904 80.8636 284.106 81.0227 284.263 81.2273C284.42 81.4318 284.518 81.6705 284.555 81.9432H283.885C283.834 81.7443 283.72 81.5682 283.544 81.4148C283.37 81.2595 283.135 81.1818 282.839 81.1818C282.578 81.1818 282.349 81.25 282.152 81.3864C281.957 81.5208 281.804 81.7112 281.695 81.9574C281.587 82.2017 281.533 82.4886 281.533 82.8182C281.533 83.1553 281.586 83.4489 281.692 83.6989C281.8 83.9489 281.951 84.143 282.146 84.2812C282.343 84.4195 282.574 84.4886 282.839 84.4886C283.014 84.4886 283.172 84.4583 283.314 84.3977C283.456 84.3371 283.576 84.25 283.675 84.1364C283.773 84.0227 283.843 83.8864 283.885 83.7273H284.555C284.518 83.9848 284.424 84.2169 284.274 84.4233C284.126 84.6278 283.93 84.7907 283.686 84.9119C283.444 85.0312 283.161 85.0909 282.839 85.0909ZM286.161 83.4091L286.149 82.5795H286.286L288.195 80.6364H289.024L286.99 82.6932H286.933L286.161 83.4091ZM285.536 85V79.1818H286.206V85H285.536ZM288.308 85L286.604 82.8409L287.081 82.375L289.161 85H288.308Z" fill="white"/>
</svg>
